<?xml version="1.0" encoding="utf-8"?>
<svg width="35" height="36" viewBox="0 0 35 36" fill="none" xmlns="http://www.w3.org/2000/svg">
  <g transform="translate(6 6)">
    <g transform="translate(0 10.181)">
      <path d="M0 0.114132L23 0" />
      <path d="M22.9752 -4.99994L-0.024811 -4.88581Q-0.147553 -4.8852 -0.270116 -4.87857Q-0.39268 -4.87194 -0.514771 -4.8593Q-0.636862 -4.84666 -0.758186 -4.82805Q-0.879509 -4.80944 -0.999774 -4.78489Q-1.12004 -4.76035 -1.23895 -4.72994Q-1.35787 -4.69952 -1.47515 -4.66331Q-1.59243 -4.6271 -1.70779 -4.58517Q-1.82315 -4.54325 -1.93632 -4.49571Q-2.04948 -4.44818 -2.16018 -4.39515Q-2.27087 -4.34212 -2.37884 -4.28372Q-2.4868 -4.22533 -2.59176 -4.1617Q-2.69673 -4.09808 -2.79845 -4.02938Q-2.90016 -3.96068 -2.99839 -3.88708Q-3.09661 -3.81347 -3.19111 -3.73513Q-3.2856 -3.6568 -3.37614 -3.57392Q-3.46667 -3.49104 -3.55303 -3.40381Q-3.63939 -3.31659 -3.72137 -3.22524Q-3.80335 -3.13388 -3.88074 -3.03862Q-3.95814 -2.94335 -4.03077 -2.8444Q-4.1034 -2.74545 -4.17108 -2.64306Q-4.23877 -2.54066 -4.30135 -2.43507Q-4.36392 -2.32948 -4.42125 -2.22094Q-4.47857 -2.11241 -4.5305 -2.00119Q-4.58243 -1.88997 -4.62883 -1.77634Q-4.67524 -1.66271 -4.71602 -1.54694Q-4.7568 -1.43116 -4.79184 -1.31353Q-4.82689 -1.1959 -4.85612 -1.07669Q-4.88536 -0.957476 -4.90871 -0.836974Q-4.93205 -0.716472 -4.94946 -0.594969Q-4.96687 -0.473467 -4.97829 -0.351256Q-4.98972 -0.229046 -4.99513 -0.106422Q-5.00055 0.0162011 -4.99994 0.138943Q-4.99872 0.384574 -4.97343 0.628903Q-4.94814 0.873232 -4.89903 1.11391Q-4.84991 1.35458 -4.77744 1.58928Q-4.70497 1.82398 -4.60985 2.05045Q-4.51472 2.27692 -4.39786 2.49297Q-4.28099 2.70902 -4.14351 2.91258Q-4.00603 3.11614 -3.84926 3.30524Q-3.6925 3.49434 -3.51795 3.66717Q-3.3434 3.83999 -3.15275 3.99488Q-2.9621 4.14976 -2.75719 4.28521Q-2.55227 4.42067 -2.33507 4.53538Q-2.11787 4.65009 -1.89047 4.74297Q-1.66307 4.83584 -1.42766 4.90598Q-1.19225 4.97611 -0.951105 5.02284Q-0.709956 5.06956 -0.465388 5.09243Q-0.22082 5.11529 0.024811 5.11407L23.0248 4.99994Q23.1475 4.99933 23.2701 4.9927Q23.3927 4.98607 23.5148 4.97343Q23.6369 4.96079 23.7582 4.94218Q23.8795 4.92357 23.9998 4.89903Q24.12 4.87448 24.2389 4.84407Q24.3579 4.81365 24.4751 4.77744Q24.5924 4.74123 24.7078 4.6993Q24.8231 4.65738 24.9363 4.60985Q25.0495 4.56231 25.1602 4.50928Q25.2709 4.45625 25.3788 4.39786Q25.4868 4.33946 25.5918 4.27584Q25.6967 4.21221 25.7984 4.14351Q25.9002 4.07481 25.9984 4.00121Q26.0966 3.9276 26.1911 3.84927Q26.2856 3.77093 26.3761 3.68805Q26.4667 3.60517 26.553 3.51795Q26.6394 3.43072 26.7214 3.33937Q26.8033 3.24802 26.8807 3.15275Q26.9581 3.05748 27.0308 2.95853Q27.1034 2.85958 27.1711 2.75719Q27.2388 2.65479 27.3013 2.5492Q27.3639 2.44361 27.4212 2.33507Q27.4786 2.22654 27.5305 2.11532Q27.5824 2.0041 27.6288 1.89047Q27.6752 1.77684 27.716 1.66107Q27.7568 1.5453 27.7918 1.42766Q27.8269 1.31003 27.8561 1.19082Q27.8854 1.07161 27.9087 0.951106Q27.9321 0.830604 27.9495 0.709101Q27.9669 0.587599 27.9783 0.465388Q27.9897 0.343178 27.9951 0.220554Q28.0005 0.0979308 27.9999 -0.0248108Q27.9993 -0.147552 27.9927 -0.270116Q27.9861 -0.39268 27.9734 -0.514771Q27.9608 -0.636862 27.9422 -0.758185Q27.9236 -0.879509 27.899 -0.999774Q27.8745 -1.12004 27.8441 -1.23895Q27.8136 -1.35787 27.7774 -1.47515Q27.7412 -1.59243 27.6993 -1.70779Q27.6574 -1.82315 27.6098 -1.93632Q27.5623 -2.04948 27.5093 -2.16018Q27.4562 -2.27087 27.3979 -2.37884Q27.3395 -2.4868 27.2758 -2.59176Q27.2122 -2.69673 27.1435 -2.79845Q27.0748 -2.90016 27.0012 -2.99839Q26.9276 -3.09661 26.8493 -3.19111Q26.7709 -3.2856 26.688 -3.37614Q26.6052 -3.46667 26.5179 -3.55303Q26.4307 -3.63939 26.3394 -3.72137Q26.248 -3.80335 26.1527 -3.88074Q26.0575 -3.95814 25.9585 -4.03077Q25.8596 -4.1034 25.7572 -4.17108Q25.6548 -4.23877 25.5492 -4.30135Q25.4436 -4.36392 25.3351 -4.42125Q25.2265 -4.47857 25.1153 -4.5305Q25.0041 -4.58243 24.8905 -4.62883Q24.7768 -4.67524 24.6611 -4.71602Q24.5453 -4.7568 24.4277 -4.79184Q24.31 -4.82689 24.1908 -4.85612Q24.0716 -4.88536 23.9511 -4.90871Q23.8306 -4.93205 23.7091 -4.94946Q23.5876 -4.96687 23.4654 -4.97829Q23.3432 -4.98972 23.2206 -4.99513Q23.0979 -5.00055 22.9752 -4.99994Z" fill="#808080" fill-rule="evenodd" />
    </g>
    <path d="M0 0L0 24L0 11.0254" fill="none" stroke-width="5" stroke="#808080" stroke-linecap="round" stroke-linejoin="round" transform="translate(11.481 0)" />
  </g>
</svg>