<?xml version="1.0" encoding="utf-8"?>
<svg width="95" height="96" viewBox="0 0 95 96" fill="none" xmlns="http://www.w3.org/2000/svg">
  <g transform="translate(4 4)">
    <g fill="#766B6B" fill-opacity="0">
      <path d="M78 0C82.9712 0 87 4.02876 87 9L87 79C87 83.9712 82.9712 88 78 88L9 88C4.02876 88 0 83.9712 0 79L0 9C0 4.02876 4.02876 0 9 0L78 0Z" />
      <path d="M87.1926 -0.192642Q83.3853 -4 78 -4L9 -4Q3.61472 -4 -0.192642 -0.192642Q-4 3.61472 -4 9L-4 79Q-4 84.3853 -0.192642 88.1926Q3.61471 92 9 92L78 92Q83.3853 92 87.1926 88.1926Q91 84.3853 91 79L91 9Q91 3.61471 87.1926 -0.192642ZM87 9C87 4.02876 82.9712 0 78 0L9 0C4.02876 0 0 4.02876 0 9L0 79C0 83.9712 4.02876 88 9 88L78 88C82.9712 88 87 83.9712 87 79L87 9Z" fill="#00000F" fill-rule="evenodd" />
    </g>
    <path d="M0 1.91755L0 6.70365Q0 6.80613 0.0088856 6.90823Q0.0177712 7.01032 0.0354755 7.11126Q0.0531797 7.2122 0.0795693 7.31122Q0.105959 7.41024 0.140835 7.50661Q0.175711 7.60297 0.218811 7.69594Q0.261911 7.78892 0.31291 7.87781Q0.363909 7.96669 0.422424 8.05083Q0.480938 8.13496 0.546527 8.2137Q0.612115 8.29244 0.684284 8.3652Q0.756453 8.43795 0.834659 8.50418Q0.912864 8.57041 0.996518 8.6296Q1.08017 8.6888 1.16864 8.74052Q1.25711 8.79224 1.34974 8.83609Q1.44236 8.87994 1.53843 8.9156Q1.63451 8.95126 1.73331 8.97845Q1.83212 9.00564 1.93291 9.02417L3.80913 9.36898Q4.02821 9.40924 4.23589 9.48979L7.99235 10.9469Q8.22705 11.0379 8.45623 11.1421L11.306 12.4372Q12.1363 12.8146 12.8728 13.3526L13.7672 14.0059Q14.1633 14.2952 14.5253 14.6264L16.6675 16.5865Q16.9143 16.8123 17.1435 17.056L18.7885 18.8055Q18.8761 18.8986 18.9721 18.9831Q19.0681 19.0676 19.1716 19.1426Q19.2751 19.2177 19.3852 19.2827Q19.4953 19.3476 19.6111 19.4019Q19.7269 19.4562 19.8472 19.4994Q19.9676 19.5425 20.0915 19.5741Q20.2154 19.6057 20.3417 19.6255Q20.468 19.6453 20.5956 19.6531Q20.7232 19.6609 20.851 19.6566Q20.9788 19.6524 21.1056 19.6361Q21.2325 19.6198 21.3572 19.5916Q21.4819 19.5634 21.6034 19.5236Q21.7249 19.4838 21.8421 19.4327Q21.9593 19.3816 22.0712 19.3197Q22.1831 19.2578 22.2886 19.1857Q22.3942 19.1135 22.4924 19.0317L25.5466 16.4895Q25.6072 16.4392 25.6626 16.3832Q25.7181 16.3273 25.768 16.2663Q25.8179 16.2054 25.8617 16.14Q25.9055 16.0745 25.9429 16.0052Q25.9804 15.9359 26.011 15.8634Q26.0416 15.7908 26.0652 15.7156Q26.0888 15.6405 26.1051 15.5634Q26.1214 15.4864 26.1303 15.4081Q26.1392 15.3299 26.1406 15.2511Q26.142 15.1724 26.1359 15.0939Q26.1298 15.0153 26.1162 14.9377Q26.1027 14.8602 26.0818 14.7842Q26.0609 14.7083 26.0328 14.6347Q26.0048 14.5611 25.9699 14.4905Q25.935 14.4199 25.8935 14.3529Q25.852 14.286 25.8043 14.2233L24.7949 12.8961Q24.7329 12.8146 24.6613 12.7414L23.0897 11.1343Q22.9954 11.0379 22.8983 10.9444L20.9565 9.07557Q20.534 8.66894 20.0618 8.32127L16.9279 6.01387Q16.9143 6.00385 16.9007 5.99387L15.3807 4.88363Q14.8873 4.52325 14.3493 4.23368L12.653 3.32075Q12.1363 3.04264 11.5876 2.8348L8.72715 1.75144Q8.22705 1.56203 7.70787 1.43388L4.51359 0.64542Q4.02821 0.525612 3.53247 0.460926L1.90143 0.248103Q1.81263 0.236516 1.7231 0.234415Q1.63357 0.232314 1.54432 0.239722Q1.45507 0.24713 1.36712 0.263964Q1.27916 0.280799 1.19348 0.306869Q1.10781 0.332939 1.02538 0.36795Q0.942955 0.402962 0.864708 0.44652Q0.786461 0.490079 0.713277 0.541692Q0.640092 0.593305 0.572796 0.652391Q0.5055 0.711477 0.444851 0.777368Q0.384203 0.84326 0.330886 0.915213Q0.27757 0.987166 0.232188 1.06437Q0.186806 1.14157 0.149869 1.22316Q0.112933 1.30474 0.0848602 1.38978Q0.0567871 1.47482 0.0378938 1.56236Q0.0190005 1.64989 0.00950026 1.73894Q0 1.82799 0 1.91755Z" fill="none" stroke-width="4" stroke="#00000F" transform="translate(47.001 4)" />
    <path d="M0.752384 0.299343L1.77254 0.705221Q1.7787 0.707672 1.7848 0.71027L3.14359 1.28923Q3.51616 1.44798 3.87276 1.6399L6.07711 2.82631Q6.26712 2.92857 6.46187 3.02151L7.40982 3.47389Q7.52478 3.52875 7.6309 3.59918Q7.73702 3.66962 7.83222 3.75424Q7.92741 3.83886 8.0098 3.93599Q8.09219 4.03312 8.16015 4.14085Q8.2281 4.24858 8.28028 4.36477Q8.33246 4.48096 8.36783 4.60332Q8.4032 4.72568 8.42106 4.85179Q8.43892 4.9779 8.43892 5.10527L8.43892 47.9862Q8.43892 48.0307 8.44459 48.0748Q8.45025 48.1189 8.46149 48.162Q8.47274 48.205 8.48937 48.2463Q8.506 48.2875 8.52776 48.3264Q8.54951 48.3652 8.57603 48.4009Q8.60255 48.4366 8.6334 48.4687Q8.66426 48.5007 8.69894 48.5286Q8.73363 48.5565 8.77158 48.5797Q8.80953 48.6029 8.85014 48.6211Q8.89074 48.6393 8.93332 48.6522Q8.97591 48.6651 9.01979 48.6724Q9.06367 48.6797 9.10814 48.6815Q9.1526 48.6832 9.19691 48.6792Q9.24122 48.6752 9.28467 48.6656Q9.32812 48.656 9.36999 48.641Q9.41186 48.6259 9.45148 48.6057L10.7208 47.9567Q10.7555 47.9389 10.788 47.9174L12.9232 46.5046Q13.2169 46.3103 13.4944 46.0933L15.2118 44.7503Q15.6783 44.3855 16.0924 43.9621L17.339 42.6872Q17.5606 42.4607 17.7654 42.219L19.1163 40.625Q19.4428 40.2398 19.7236 39.8201L21.1945 37.6218Q21.325 37.4267 21.4451 37.2249L22.879 34.8161Q23.3521 34.0213 23.6516 33.1461L24.1313 31.7445Q24.3656 31.06 24.3656 30.3366L24.3656 30.2196Q24.3656 30.1565 24.3533 30.0947Q24.341 30.0329 24.3169 29.9746Q24.2927 29.9164 24.2577 29.8639Q24.2227 29.8115 24.1781 29.7669Q24.1335 29.7224 24.0811 29.6873Q24.0287 29.6523 23.9704 29.6282Q23.9122 29.6041 23.8503 29.5918Q23.7885 29.5795 23.7254 29.5795L17.7052 29.5795Q17.595 29.5795 17.485 29.574Q17.3749 29.5686 17.2653 29.5578Q17.1556 29.547 17.0466 29.5309Q16.9376 29.5147 16.8296 29.4932Q16.7215 29.4717 16.6146 29.4449Q16.5078 29.4182 16.4023 29.3862Q16.2969 29.3542 16.1931 29.3171Q16.0894 29.28 15.9876 29.2378Q15.8858 29.1956 15.7862 29.1485Q15.6866 29.1014 15.5894 29.0495Q15.4923 28.9975 15.3978 28.9409Q15.3033 28.8843 15.2116 28.823Q15.12 28.7618 15.0315 28.6962Q14.943 28.6306 14.8579 28.5607Q14.7727 28.4908 14.6911 28.4168Q14.6094 28.3428 14.5315 28.2649Q14.4536 28.187 14.3796 28.1053Q14.3056 28.0237 14.2357 27.9385Q14.1658 27.8533 14.1002 27.7648Q14.0345 27.6763 13.9733 27.5847Q13.9121 27.4931 13.8555 27.3986Q13.7988 27.3041 13.7469 27.2069Q13.695 27.1098 13.6478 27.0102Q13.6007 26.9106 13.5586 26.8088Q13.5164 26.707 13.4793 26.6032Q13.4422 26.4995 13.4102 26.3941Q13.3782 26.2886 13.3514 26.1817Q13.3247 26.0749 13.3032 25.9668Q13.2817 25.8587 13.2655 25.7497Q13.2493 25.6408 13.2385 25.5311Q13.2277 25.4214 13.2223 25.3114Q13.2169 25.2014 13.2169 25.0912L13.2169 24.888Q13.2169 24.7778 13.2223 24.6678Q13.2277 24.5577 13.2385 24.4481Q13.2493 24.3384 13.2655 24.2294Q13.2817 24.1204 13.3032 24.0124Q13.3247 23.9043 13.3514 23.7974Q13.3782 23.6905 13.4102 23.5851Q13.4422 23.4797 13.4793 23.3759Q13.5164 23.2722 13.5586 23.1704Q13.6007 23.0686 13.6478 22.969Q13.6949 22.8694 13.7469 22.7722Q13.7988 22.6751 13.8555 22.5805Q13.9121 22.486 13.9733 22.3944Q14.0345 22.3028 14.1002 22.2143Q14.1658 22.1258 14.2357 22.0406Q14.3056 21.9555 14.3796 21.8738Q14.4536 21.7922 14.5315 21.7143Q14.6094 21.6364 14.6911 21.5624Q14.7727 21.4884 14.8579 21.4185Q14.943 21.3486 15.0315 21.283Q15.12 21.2173 15.2116 21.1561Q15.3033 21.0949 15.3978 21.0383Q15.4923 20.9816 15.5894 20.9297Q15.6866 20.8777 15.7862 20.8306Q15.8858 20.7835 15.9876 20.7414Q16.0894 20.6992 16.1931 20.6621Q16.2969 20.625 16.4023 20.593Q16.5078 20.561 16.6146 20.5342Q16.7215 20.5074 16.8296 20.4859Q16.9376 20.4644 17.0466 20.4483Q17.1556 20.4321 17.2653 20.4213Q17.3749 20.4105 17.485 20.4051Q17.595 20.3997 17.7052 20.3997L32.0964 20.3997Q32.186 20.3997 32.2753 20.4085Q32.3645 20.4173 32.4525 20.4348Q32.5404 20.4523 32.6262 20.4783Q32.712 20.5043 32.7948 20.5386Q32.8777 20.573 32.9568 20.6152Q33.0358 20.6575 33.1104 20.7073Q33.185 20.7571 33.2543 20.814Q33.3236 20.8709 33.387 20.9343Q33.4504 20.9977 33.5073 21.067Q33.5642 21.1363 33.614 21.2109Q33.6638 21.2854 33.7061 21.3645Q33.7483 21.4436 33.7826 21.5264Q33.817 21.6093 33.843 21.6951Q33.869 21.7809 33.8865 21.8688Q33.904 21.9568 33.9128 22.046Q33.9216 22.1352 33.9216 22.2249L33.9216 24.2493L33.9216 27.2105L33.9216 28.9872L33.0901 31.8215Q33.0528 31.9484 33.0118 32.0742L31.8214 35.7261Q31.605 36.3902 31.2875 37.0124L28.5886 42.3022Q28.1301 43.201 27.4819 43.9743L24.302 47.768Q23.7864 48.3831 23.1691 48.8961L17.4698 53.6314Q16.8366 54.1575 16.1177 54.5585L12.8634 56.3737Q12.0586 56.8226 11.1789 57.097L4.81048 59.0838Q3.51616 59.4877 2.16031 59.4877L1.6582 59.4877Q1.57674 59.4877 1.49567 59.4797Q1.4146 59.4717 1.3347 59.4558Q1.25481 59.4399 1.17685 59.4163Q1.0989 59.3926 1.02364 59.3614Q0.948375 59.3303 0.876531 59.2919Q0.804688 59.2535 0.736955 59.2082Q0.669221 59.1629 0.60625 59.1113Q0.543279 59.0596 0.485676 59.002Q0.428074 58.9444 0.376395 58.8814Q0.324716 58.8184 0.279458 58.7507Q0.2342 58.683 0.195799 58.6111Q0.157397 58.5393 0.126223 58.464Q0.0950489 58.3888 0.0714017 58.3108Q0.0477544 58.2328 0.0318619 58.1529Q0.0159694 58.0731 0.0079847 57.992Q0 57.9109 0 57.8295L0 0.809746Q0 0.77624 0.00407232 0.742982Q0.00814463 0.709724 0.0162289 0.677208Q0.0243131 0.644692 0.0362895 0.6134Q0.0482658 0.582107 0.0639566 0.552502Q0.0796474 0.522897 0.0988201 0.495419Q0.117993 0.46794 0.140363 0.442996Q0.162733 0.418051 0.18797 0.396011Q0.213206 0.37397 0.240934 0.35516Q0.268661 0.33635 0.29847 0.321049Q0.328278 0.305749 0.359726 0.294185Q0.391173 0.28262 0.423792 0.274964Q0.456412 0.267308 0.48972 0.263672Q0.523028 0.260037 0.556532 0.260478Q0.590035 0.260918 0.623236 0.265427Q0.656437 0.269935 0.688845 0.278446Q0.721252 0.286957 0.752384 0.299343Z" fill="none" stroke-width="4" stroke="#00000F" transform="translate(47.078 19.512)" />
    <path d="M32.5716 0.0189495L30.8154 0.0372391Q30.5502 0.0400009 30.2971 0.119094L25.7008 1.55524Q25.3378 1.66866 24.9858 1.81264L20.5102 3.64338Q19.5463 4.03763 18.6996 4.64376L13.0779 8.66788Q12.3069 9.21973 11.6696 9.92163L8.92441 12.9448Q8.54248 13.3654 8.21714 13.8312L5.7847 17.3136Q5.64671 17.5111 5.49823 17.7009L4.10099 19.487Q3.33011 20.4723 2.86082 21.6321L1.80645 24.2378Q1.59267 24.7661 1.44803 25.3174L0.291306 29.7262Q0 30.8365 0 31.9844L0 38.2396L0 43.1256L1.50939 49.4399Q1.59267 49.7883 1.70368 50.1288L2.88831 53.7631Q3.33011 55.1185 4.17319 56.268L6.62011 59.6043Q6.80501 59.8564 7.00714 60.0949L9.95303 63.5708Q10.5695 64.2982 11.3261 64.8785L15.9378 68.4155Q16.361 68.7401 16.8199 69.0117L21.1688 71.5864Q21.8629 71.9974 22.6196 72.2768L26.8085 73.8237Q27.0753 73.9222 27.3478 74.0035L29.3057 74.5874Q30.5502 74.9586 31.8489 74.9586L32.5708 74.9586Q32.6602 74.9586 32.7492 74.9498Q32.8382 74.941 32.9259 74.9236Q33.0136 74.9061 33.0992 74.8802Q33.1848 74.8542 33.2674 74.82Q33.35 74.7858 33.4289 74.7436Q33.5078 74.7015 33.5821 74.6518Q33.6565 74.6021 33.7256 74.5454Q33.7947 74.4886 33.858 74.4254Q33.9212 74.3622 33.9779 74.293Q34.0347 74.2239 34.0843 74.1496Q34.134 74.0752 34.1762 73.9963Q34.2183 73.9175 34.2526 73.8348Q34.2868 73.7522 34.3127 73.6666Q34.3387 73.5811 34.3561 73.4934Q34.3736 73.4057 34.3824 73.3167Q34.3911 73.2277 34.3911 73.1382L34.3911 69.1955Q34.3911 68.9865 34.3581 68.7803Q34.325 68.574 34.2597 68.3755Q34.1944 68.1771 34.0985 67.9915Q34.0026 67.8059 33.8785 67.6378Q33.7545 67.4697 33.6054 67.3233Q33.4562 67.177 33.2859 67.0561Q33.1155 66.9352 32.9281 66.8428Q32.7407 66.7505 32.5411 66.6889L30.587 66.0863Q30.5502 66.0749 30.5137 66.0625L26.2758 64.6179Q25.3378 64.2982 24.4932 63.78L20.5705 61.3732Q19.5463 60.7448 18.7255 59.8672L16.5266 57.5164Q16.361 57.3394 16.186 57.1716L15.1858 56.2127Q14.6195 55.6698 14.157 55.0363Q13.6944 54.4027 13.3499 53.698L12.3069 51.565L10.5695 48.0116L9.46951 43.3716Q9.41119 43.1256 9.36694 42.8767L8.67987 39.0124Q8.54247 38.2396 8.54247 37.4547L8.54247 35.5683Q8.54247 34.5381 8.77786 33.5351L9.31217 31.2585Q9.41119 30.8366 9.55076 30.4262L10.4103 27.8992Q10.5695 27.4312 10.7796 26.9836L12.2102 23.9357Q12.3069 23.7297 12.4141 23.5288L13.6794 21.1566Q14.0444 20.4723 14.5222 19.8616L16.0582 17.8982Q16.361 17.5111 16.7046 17.1597L18.1806 15.6504Q18.388 15.4383 18.6091 15.2405L19.781 14.1918Q20.7046 13.3654 21.8189 12.8228L23.5225 11.9932Q23.7452 11.8848 23.9614 11.7642L25.0865 11.1367Q25.3378 10.9965 25.5796 10.8403L27.6212 9.52174Q28.0888 9.21973 28.5904 8.97836L29.3403 8.61749Q29.9376 8.33007 30.5838 8.18266Q31.2301 8.03526 31.8929 8.03526L32.5708 8.03526Q32.6602 8.03526 32.7492 8.0265Q32.8382 8.01773 32.9259 8.00029Q33.0136 7.98284 33.0992 7.95688Q33.1848 7.93092 33.2674 7.8967Q33.35 7.86248 33.4289 7.82032Q33.5078 7.77817 33.5821 7.72849Q33.6565 7.6788 33.7256 7.62207Q33.7947 7.56534 33.858 7.50211Q33.9212 7.43887 33.9779 7.36975Q34.0347 7.30062 34.0843 7.22626Q34.134 7.15191 34.1762 7.07304Q34.2183 6.99418 34.2526 6.91156Q34.2868 6.82894 34.3127 6.74336Q34.3387 6.65779 34.3561 6.57008Q34.3736 6.48237 34.3824 6.39338Q34.3911 6.30438 34.3911 6.21495L34.3911 1.81964Q34.3911 1.73058 34.3823 1.64196Q34.3736 1.55334 34.3561 1.46602Q34.3386 1.3787 34.3126 1.29353Q34.2865 1.20836 34.2523 1.12618Q34.218 1.04399 34.1757 0.965589Q34.1335 0.887187 34.0837 0.813335Q34.034 0.739482 33.9771 0.670901Q33.9203 0.602319 33.857 0.539676Q33.7937 0.477034 33.7246 0.420943Q33.6554 0.364852 33.581 0.315859Q33.5067 0.266866 33.4278 0.225449Q33.349 0.184033 33.2665 0.150597Q33.1839 0.117161 33.0985 0.0920317Q33.013 0.0669025 32.9256 0.0503255Q32.8381 0.0337485 32.7493 0.0258853Q32.6606 0.0180221 32.5716 0.0189495Z" fill="none" stroke-width="4" stroke="#00000F" transform="translate(6 4.041)" />
    <path d="M6.5498 52.0159L5.22733 51.8578Q4.92278 51.8214 4.66936 51.6486L2.85409 50.4109Q2.75096 50.3406 2.65127 50.2654L1.33541 49.2739Q1.18039 49.1571 1.03988 49.0232Q0.899371 48.8893 0.77525 48.7401Q0.651128 48.5908 0.545053 48.4283Q0.438978 48.2657 0.352366 48.092Q0.265754 47.9183 0.199762 47.7358Q0.13377 47.5532 0.0892799 47.3643Q0.0447895 47.1754 0.0223948 46.9825Q0 46.7897 0 46.5956L0 4.63328Q0 4.43918 0.0223948 4.24637Q0.0447895 4.05356 0.0892799 3.86462Q0.13377 3.67569 0.199762 3.49315Q0.265754 3.3106 0.352366 3.1369Q0.438978 2.96319 0.545053 2.80063Q0.651128 2.63807 0.77525 2.48884Q0.899371 2.33961 1.03988 2.2057Q1.18039 2.07178 1.33541 1.95497L2.40426 1.1496Q2.75096 0.888359 3.15275 0.724011L3.85507 0.436733Q4.38386 0.220437 4.94445 0.110219Q5.50503 0 6.07635 0L6.53862 0Q6.60814 0 6.67732 0.0068138Q6.7465 0.0136276 6.81468 0.0271896Q6.88286 0.0407516 6.94938 0.0609311Q7.01591 0.0811106 7.08013 0.107713Q7.14436 0.134316 7.20566 0.167086Q7.26697 0.199856 7.32477 0.238477Q7.38257 0.277098 7.43631 0.321199Q7.49005 0.3653 7.5392 0.414455Q7.58836 0.463611 7.63246 0.517348Q7.67656 0.571085 7.71518 0.628885Q7.7538 0.686686 7.78657 0.747994Q7.81934 0.809302 7.84594 0.873527Q7.87255 0.937752 7.89273 1.00427Q7.91291 1.0708 7.92647 1.13898Q7.94003 1.20716 7.94685 1.27634Q7.95366 1.34552 7.95366 1.41504L7.95366 50.7699Q7.95366 50.8363 7.94667 50.9022Q7.93968 50.9682 7.92577 51.033Q7.91186 51.0979 7.8912 51.1609Q7.87053 51.2239 7.84334 51.2844Q7.81615 51.3449 7.78273 51.4022Q7.74931 51.4595 7.71003 51.513Q7.67076 51.5664 7.62607 51.6154Q7.58138 51.6644 7.53178 51.7085Q7.48217 51.7525 7.4282 51.791Q7.37423 51.8296 7.31649 51.8623Q7.25876 51.8949 7.19791 51.9213Q7.13705 51.9477 7.07375 51.9675Q7.01046 51.9873 6.94542 52.0003Q6.88039 52.0134 6.81435 52.0195Q6.7483 52.0256 6.68198 52.0247Q6.61566 52.0238 6.5498 52.0159Z" fill="none" stroke-width="4" stroke="#00000F" transform="translate(32.207 12.077)" />
  </g>
</svg>