<?xml version="1.0" encoding="utf-8"?>
<svg width="272" height="266.275" viewBox="0 0 272 266.275" fill="none" xmlns="http://www.w3.org/2000/svg">
  <g transform="translate(6.5 6.5)">
    <path d="M0 6.07422L0 21.4662Q0 21.648 0.00791147 21.8297Q0.0158229 22.0113 0.0316309 22.1924Q0.0474389 22.3735 0.0711134 22.5538Q0.0947879 22.734 0.126284 22.9131Q0.15778 23.0921 0.197038 23.2697Q0.236297 23.4472 0.283242 23.6228Q0.330188 23.7984 0.384733 23.9719Q0.439277 24.1453 0.501317 24.3162Q0.563357 24.4871 0.632775 24.6551Q0.702192 24.8231 0.778856 24.988Q0.85552 25.1528 0.939285 25.3142Q1.02305 25.4755 1.11376 25.6331Q1.20446 25.7907 1.30194 25.9441Q1.39942 26.0976 1.50348 26.2467Q1.60755 26.3957 1.718 26.5401Q1.82845 26.6845 1.94508 26.824Q2.06172 26.9635 2.18431 27.0977Q2.3069 27.232 2.43521 27.3608Q2.56353 27.4895 2.69733 27.6126Q2.83113 27.7357 2.97015 27.8529Q3.10918 27.97 3.25318 28.081Q3.39717 28.192 3.54586 28.2966Q3.69455 28.4012 3.84765 28.4993Q4.00075 28.5973 4.15797 28.6886Q4.31519 28.7799 4.47624 28.8642Q4.63728 28.9486 4.80185 29.0259Q4.96641 29.1031 5.13418 29.1732Q5.30195 29.2432 5.47261 29.3059Q5.64327 29.3686 5.81649 29.4237Q5.98972 29.4789 6.16518 29.5265Q6.34064 29.5741 6.51801 29.614Q6.69538 29.6539 6.87431 29.6861L13.1494 30.8138Q13.9108 30.9507 14.6341 31.225L28.1791 36.3628Q28.4108 36.4507 28.6372 36.5513L41.0866 42.0844Q41.9108 42.4507 42.6447 42.9749L48.5134 47.1668Q48.9108 47.4507 49.2747 47.7763L58.1616 55.7278Q58.4108 55.9507 58.6425 56.1917L65.2327 63.0455Q65.3761 63.1947 65.5264 63.337Q65.6766 63.4794 65.8333 63.6146Q65.9899 63.7498 66.1527 63.8776Q66.3155 64.0053 66.4841 64.1254Q66.6526 64.2455 66.8266 64.3576Q67.0005 64.4697 67.1795 64.5736Q67.3585 64.6775 67.5421 64.773Q67.7257 64.8685 67.9136 64.9553Q68.1015 65.0421 68.2931 65.1201Q68.4848 65.1981 68.6799 65.2671Q68.875 65.3361 69.0732 65.396Q69.2713 65.4558 69.4719 65.5064Q69.6726 65.557 69.8754 65.5982Q70.0782 65.6394 70.2827 65.6711Q70.4872 65.7029 70.693 65.7251Q70.8988 65.7472 71.1053 65.7598Q71.3119 65.7724 71.5188 65.7754Q71.7258 65.7784 71.9326 65.7718Q72.1395 65.7651 72.3458 65.7489Q72.5521 65.7326 72.7574 65.7068Q72.9628 65.681 73.1667 65.6456Q73.3706 65.6103 73.5726 65.5655Q73.7747 65.5207 73.9744 65.4666Q74.1742 65.4124 74.3712 65.3491Q74.5682 65.2857 74.7621 65.2133Q74.9559 65.1408 75.1462 65.0594Q75.3365 64.978 75.5228 64.8879Q75.7091 64.7978 75.891 64.6991Q76.0729 64.6004 76.25 64.4933Q76.4271 64.3863 76.5991 64.2711Q76.771 64.1559 76.9374 64.0329Q77.1038 63.9098 77.2643 63.7792L88.0638 54.9889Q88.1714 54.9014 88.2746 54.8087Q88.3778 54.7161 88.4764 54.6185Q88.575 54.521 88.6687 54.4188Q88.7625 54.3166 88.8512 54.21Q88.9399 54.1034 89.0234 53.9926Q89.1068 53.8818 89.1848 53.7672Q89.2628 53.6525 89.3352 53.5341Q89.4075 53.4158 89.474 53.2941Q89.5406 53.1725 89.6012 53.0477Q89.6618 52.9229 89.7162 52.7954Q89.7707 52.6679 89.819 52.5378Q89.8672 52.4078 89.9091 52.2756Q89.951 52.1434 89.9864 52.0093Q90.0219 51.8752 90.0508 51.7396Q90.0797 51.6039 90.1021 51.467Q90.1244 51.3302 90.14 51.1923Q90.1557 51.0545 90.1647 50.9161Q90.1737 50.7777 90.176 50.6391Q90.1783 50.5004 90.1739 50.3618Q90.1694 50.2232 90.1583 50.0849Q90.1472 49.9467 90.1294 49.8091Q90.1116 49.6716 90.0872 49.5351Q90.0627 49.3985 90.0317 49.2634Q90.0007 49.1282 89.9632 48.9947Q89.9257 48.8611 89.8818 48.7296Q89.8378 48.598 89.7876 48.4688Q89.7374 48.3395 89.6809 48.2128Q89.6245 48.0861 89.562 47.9623Q89.4995 47.8385 89.4311 47.7179Q89.3627 47.5972 89.2885 47.48Q89.2143 47.3628 89.1346 47.2494Q89.0548 47.1359 88.9697 47.0264L85.6298 42.7323Q85.4108 42.4507 85.1585 42.1984L79.5061 36.546Q79.4108 36.4507 79.3126 36.3583L71.3361 28.851Q70.9108 28.4507 70.4368 28.1094L58.4244 19.4605Q58.4108 19.4507 58.3971 19.4409L51.9031 14.8023Q51.4108 14.4507 50.8754 14.1689L42.4224 9.71998Q41.9108 9.45068 41.3686 9.24987L28.9031 4.63302Q28.4108 4.45068 27.9005 4.3275L14.3867 1.06557Q13.9108 0.950684 13.4251 0.888711L6.84305 0.0488526Q6.68318 0.0284534 6.52245 0.0165605Q6.36172 0.00466766 6.20059 0.00131467Q6.03946 -0.00203831 5.87838 0.00315801Q5.71729 0.00835434 5.55671 0.0220853Q5.39613 0.0358164 5.23651 0.0580434Q5.07688 0.0802705 4.91865 0.110931Q4.76043 0.141592 4.60406 0.180599Q4.44768 0.219607 4.29359 0.266852Q4.13951 0.314098 3.98814 0.369447Q3.83678 0.424797 3.68856 0.488096Q3.54035 0.551394 3.3957 0.622463Q3.25104 0.693532 3.11037 0.772172Q2.96969 0.850812 2.83338 0.936801Q2.69706 1.02279 2.56551 1.11589Q2.43395 1.20898 2.30751 1.30892Q2.18107 1.40887 2.06011 1.51537Q1.93915 1.62188 1.82401 1.73465Q1.70887 1.84742 1.59987 1.96614Q1.49087 2.08485 1.38832 2.20919Q1.28577 2.33352 1.18996 2.46311Q1.09414 2.5927 1.00534 2.7272Q0.91653 2.86169 0.834981 3.0007Q0.753431 3.13971 0.679368 3.28285Q0.605305 3.426 0.538937 3.57286Q0.472569 3.71973 0.414082 3.86991Q0.355595 4.02009 0.305154 4.17316Q0.254714 4.32623 0.212461 4.48176Q0.170208 4.63729 0.136263 4.79484Q0.102317 4.95239 0.0767737 5.11152Q0.0512305 5.27065 0.0341617 5.43091Q0.0170929 5.59117 0.00854644 5.75211Q0 5.91305 0 6.07422L0 6.07422Z" fill="none" stroke-width="13" stroke="#000031" transform="translate(141.589 0)" />
    <path d="M2.93541 0.146603L6.11861 1.38506Q6.14246 1.39434 6.16606 1.40418L11.7739 3.74076Q12.1425 3.89434 12.4958 4.08031L21.454 8.79516Q21.6425 8.89434 21.8354 8.98439L25.4498 10.6711Q25.6554 10.7671 25.8537 10.8773Q26.052 10.9876 26.2419 11.1116Q26.4319 11.2356 26.6126 11.3728Q26.7933 11.51 26.9639 11.6596Q27.1344 11.8092 27.2939 11.9706Q27.4534 12.1319 27.6011 12.3041Q27.7488 12.4763 27.8839 12.6586Q28.019 12.8408 28.1409 13.0322Q28.2628 13.2235 28.3708 13.4231Q28.4788 13.6226 28.5724 13.8292Q28.666 14.0359 28.7447 14.2487Q28.8235 14.4614 28.887 14.6792Q28.9504 14.8971 28.9983 15.1188Q29.0462 15.3406 29.0782 15.5652Q29.1103 15.7898 29.1264 16.0161Q29.1424 16.2424 29.1424 16.4693L29.1424 160.584Q29.1424 160.669 29.1478 160.753Q29.1532 160.838 29.1639 160.922Q29.1747 161.006 29.1908 161.089Q29.2068 161.172 29.2281 161.254Q29.2494 161.336 29.2759 161.416Q29.3024 161.497 29.3339 161.576Q29.3655 161.654 29.4019 161.731Q29.4384 161.807 29.4797 161.881Q29.5209 161.955 29.5668 162.026Q29.6127 162.098 29.663 162.166Q29.7133 162.234 29.7678 162.299Q29.8223 162.364 29.8809 162.425Q29.9394 162.486 30.0017 162.543Q30.064 162.601 30.1299 162.654Q30.1957 162.707 30.2648 162.756Q30.3339 162.805 30.4059 162.85Q30.478 162.895 30.5527 162.934Q30.6275 162.974 30.7046 163.009Q30.7817 163.044 30.8609 163.074Q30.9401 163.104 31.0211 163.129Q31.102 163.154 31.1844 163.174Q31.2668 163.194 31.3502 163.209Q31.4337 163.223 31.5179 163.232Q31.6021 163.241 31.6868 163.245Q31.7714 163.249 31.8561 163.247Q31.9408 163.246 32.0252 163.239Q32.1096 163.232 32.1935 163.22Q32.2773 163.207 32.3601 163.19Q32.443 163.172 32.5246 163.149Q32.6062 163.126 32.6861 163.098Q32.7661 163.07 32.8441 163.038Q32.9221 163.005 32.9979 162.967L37.0105 160.96Q37.1425 160.894 37.2663 160.814L45.3489 155.584Q45.6425 155.394 45.9202 155.182L53.6733 149.253Q54.1424 148.894 54.5601 148.477L60.418 142.619Q60.6424 142.394 60.8503 142.154L66.8098 135.278Q67.1424 134.894 67.4293 134.475L73.5086 125.59Q73.6424 125.394 73.7657 125.192L80.1546 114.696Q80.6425 113.894 80.9524 113.009L83.6429 105.322Q84.1425 103.894 84.1425 102.382L84.1425 101.295Q84.1425 101.177 84.1309 101.059Q84.1193 100.942 84.0963 100.826Q84.0733 100.711 84.0391 100.598Q84.0049 100.485 83.9597 100.376Q83.9146 100.267 83.859 100.163Q83.8034 100.059 83.7379 99.9611Q83.6724 99.8631 83.5976 99.7719Q83.5228 99.6808 83.4394 99.5974Q83.356 99.514 83.2649 99.4392Q83.1737 99.3644 83.0756 99.2989Q82.9776 99.2334 82.8736 99.1778Q82.7696 99.1222 82.6606 99.077Q82.5517 99.0319 82.4389 98.9977Q82.326 98.9635 82.2104 98.9405Q82.0947 98.9175 81.9773 98.9059Q81.86 98.8943 81.7421 98.8943L54.5409 98.8943Q54.3224 98.8943 54.1043 98.8836Q53.8861 98.8729 53.6687 98.8515Q53.4513 98.8301 53.2352 98.798Q53.0191 98.766 52.8049 98.7234Q52.5906 98.6807 52.3787 98.6277Q52.1669 98.5746 51.9578 98.5112Q51.7488 98.4478 51.5431 98.3742Q51.3374 98.3006 51.1356 98.217Q50.9338 98.1334 50.7363 98.04Q50.5388 97.9466 50.3462 97.8436Q50.1535 97.7406 49.9662 97.6283Q49.7788 97.516 49.5972 97.3947Q49.4156 97.2733 49.2401 97.1432Q49.0646 97.0131 48.8958 96.8745Q48.7269 96.7359 48.5651 96.5892Q48.4032 96.4425 48.2487 96.288Q48.0943 96.1336 47.9476 95.9717Q47.8009 95.8099 47.6623 95.641Q47.5237 95.4721 47.3936 95.2967Q47.2635 95.1212 47.1421 94.9396Q47.0207 94.758 46.9084 94.5706Q46.7961 94.3832 46.6932 94.1906Q46.5902 93.9979 46.4968 93.8005Q46.4034 93.603 46.3198 93.4012Q46.2362 93.1994 46.1626 92.9937Q46.089 92.788 46.0256 92.579Q45.9622 92.3699 45.9091 92.158Q45.8561 91.9462 45.8134 91.7319Q45.7708 91.5177 45.7388 91.3016Q45.7067 91.0855 45.6853 90.8681Q45.6639 90.6507 45.6532 90.4325Q45.6425 90.2143 45.6425 89.9959L45.6425 76.7928Q45.6425 76.5743 45.6532 76.3562Q45.6639 76.138 45.6853 75.9206Q45.7067 75.7032 45.7388 75.4871Q45.7708 75.271 45.8134 75.0568Q45.8561 74.8425 45.9091 74.6306Q45.9622 74.4187 46.0256 74.2097Q46.089 74.0007 46.1626 73.795Q46.2362 73.5893 46.3198 73.3875Q46.4034 73.1857 46.4968 72.9882Q46.5902 72.7907 46.6932 72.5981Q46.7961 72.4054 46.9084 72.2181Q47.0208 72.0307 47.1421 71.8491Q47.2635 71.6674 47.3936 71.492Q47.5237 71.3165 47.6623 71.1477Q47.8009 70.9788 47.9476 70.8169Q48.0943 70.6551 48.2487 70.5006Q48.4032 70.3462 48.5651 70.1995Q48.7269 70.0528 48.8958 69.9142Q49.0646 69.7756 49.2401 69.6455Q49.4156 69.5154 49.5972 69.394Q49.7788 69.2726 49.9662 69.1603Q50.1535 69.048 50.3462 68.9451Q50.5388 68.8421 50.7363 68.7487Q50.9338 68.6553 51.1356 68.5717Q51.3374 68.4881 51.5431 68.4145Q51.7488 68.3409 51.9578 68.2775Q52.1669 68.2141 52.3787 68.161Q52.5906 68.1079 52.8049 68.0653Q53.0191 68.0227 53.2352 67.9906Q53.4513 67.9586 53.6687 67.9372Q53.8861 67.9158 54.1043 67.9051Q54.3224 67.8943 54.5409 67.8943L110.744 67.8943Q110.901 67.8943 111.058 67.902Q111.215 67.9097 111.371 67.9251Q111.527 67.9405 111.683 67.9636Q111.838 67.9866 111.992 68.0173Q112.146 68.0479 112.299 68.0861Q112.451 68.1242 112.601 68.1698Q112.752 68.2154 112.9 68.2684Q113.047 68.3213 113.193 68.3814Q113.338 68.4415 113.48 68.5087Q113.622 68.5758 113.76 68.6498Q113.899 68.7239 114.033 68.8046Q114.168 68.8854 114.299 68.9727Q114.429 69.0599 114.556 69.1535Q114.682 69.2471 114.803 69.3467Q114.925 69.4464 115.041 69.5518Q115.157 69.6573 115.268 69.7684Q115.379 69.8795 115.485 69.9958Q115.59 70.1122 115.69 70.2336Q115.79 70.3551 115.883 70.4812Q115.977 70.6074 116.064 70.738Q116.151 70.8686 116.232 71.0033Q116.313 71.138 116.387 71.2766Q116.461 71.4151 116.528 71.5571Q116.595 71.6991 116.655 71.8442Q116.716 71.9893 116.768 72.1372Q116.821 72.2851 116.867 72.4354Q116.913 72.5857 116.951 72.7381Q116.989 72.8904 117.02 73.0445Q117.05 73.1985 117.073 73.3539Q117.096 73.5093 117.112 73.6656Q117.127 73.8219 117.135 73.9788Q117.142 74.1357 117.142 74.2928L117.142 80.8943L117.142 90.8943L117.142 96.8943L114.181 106.765Q114.142 106.894 114.1 107.022L109.367 121.221Q109.142 121.894 108.814 122.523L97.6132 143.992Q97.1425 144.894 96.4802 145.667L82.6646 161.785Q82.1425 162.394 81.5197 162.9L58.776 181.38Q58.1425 181.894 57.4258 182.285L42.439 190.46Q41.6425 190.894 40.7746 191.159L13.4119 199.507Q12.1425 199.894 10.8153 199.894L5.97266 199.894Q5.82604 199.894 5.67959 199.887Q5.53315 199.88 5.38723 199.866Q5.24132 199.851 5.09629 199.83Q4.95125 199.808 4.80745 199.78Q4.66365 199.751 4.52142 199.715Q4.37919 199.68 4.23889 199.637Q4.09858 199.595 3.96053 199.545Q3.82248 199.496 3.68702 199.44Q3.55156 199.384 3.41902 199.321Q3.28647 199.258 3.15717 199.189Q3.02786 199.12 2.9021 199.045Q2.77634 198.969 2.65443 198.888Q2.53252 198.806 2.41475 198.719Q2.29698 198.632 2.18364 198.539Q2.0703 198.446 1.96167 198.347Q1.85303 198.249 1.74935 198.145Q1.64567 198.041 1.54721 197.933Q1.44875 197.824 1.35573 197.711Q1.26272 197.597 1.17537 197.48Q1.08803 197.362 1.00657 197.24Q0.925116 197.118 0.849738 196.992Q0.77436 196.866 0.705244 196.737Q0.636127 196.608 0.573439 196.475Q0.510751 196.343 0.454641 196.207Q0.398532 196.072 0.349137 195.934Q0.299742 195.796 0.257181 195.655Q0.214619 195.515 0.178993 195.373Q0.143367 195.231 0.114763 195.087Q0.0861587 194.943 0.064645 194.798Q0.0431313 194.653 0.02876 194.507Q0.0143886 194.361 0.00719432 194.215Q0 194.068 0 193.922L0 2.1543Q0 2.08891 0.00396522 2.02365Q0.00793044 1.95839 0.0158463 1.89348Q0.0237621 1.82858 0.0355995 1.76428Q0.0474368 1.69997 0.0631521 1.6365Q0.0788673 1.57304 0.0984026 1.51064Q0.117938 1.44824 0.141221 1.38714Q0.164505 1.32605 0.191451 1.26647Q0.218397 1.2069 0.248906 1.14907Q0.279415 1.09124 0.313375 1.03537Q0.347335 0.979495 0.384621 0.925784Q0.421907 0.872074 0.462381 0.820723Q0.502856 0.769373 0.54637 0.720571Q0.589885 0.67177 0.636278 0.625697Q0.682672 0.579625 0.731774 0.536451Q0.780877 0.493276 0.832507 0.453159Q0.884138 0.413042 0.938106 0.37613Q0.992074 0.339218 1.04818 0.305647Q1.10429 0.272076 1.16233 0.24197Q1.22037 0.211863 1.28013 0.185332Q1.33989 0.1588 1.40114 0.135942Q1.4624 0.113084 1.52493 0.0939822Q1.58747 0.0748809 1.65104 0.059607Q1.71462 0.0443331 1.779 0.0329428Q1.84338 0.0215525 1.90834 0.0140878Q1.9733 0.00662311 2.03859 0.00311144Q2.10388 -0.000400232 2.16926 5.40693e-05Q2.23464 0.00050837 2.29988 0.00492697Q2.36511 0.00934557 2.42996 0.0177122Q2.4948 0.0260788 2.55902 0.0383627Q2.62324 0.0506466 2.6866 0.0668025Q2.74995 0.0829583 2.81221 0.102927Q2.87448 0.122895 2.93541 0.146603Z" fill="none" stroke-width="13" stroke="#000031" transform="translate(141.858 52.385)" />
    <path d="M112.233 0.000335172L106.432 0.059412Q105.5 0.0689025 104.609 0.341257L87.8575 5.45968Q87.5 5.5689 87.153 5.70772L68.4553 13.1868Q67.5 13.5689 66.6572 14.1589L43.2745 30.5267Q42.5 31.0689 41.8567 31.7617L29.8884 44.6506Q29.5 45.0689 29.1682 45.5334L19.641 58.8716Q19.5 59.0689 19.3485 59.2583L12.2902 68.0812Q11.5 69.0689 11.0164 70.2377L5.72184 83.0328Q5.5 83.5689 5.34966 84.1293L0.303946 102.936Q0 104.069 0 105.242L0 129.069L0 145.569L5.41331 167.714Q5.5 168.069 5.61545 168.415L11.0434 184.699Q11.5 186.069 12.3664 187.224L23.3115 201.818Q23.5 202.069 23.7058 202.306L35.8764 216.349Q36.5 217.069 37.2618 217.64L56.077 231.752Q56.5 232.069 56.9576 232.334L74.8118 242.67Q75.5 243.069 76.2479 243.339L93.2374 249.474Q93.5 249.569 93.7681 249.647L104.28 252.713Q105.5 253.069 106.771 253.069L112.233 253.069Q112.393 253.069 112.553 253.061Q112.713 253.053 112.873 253.037Q113.033 253.022 113.191 252.998Q113.35 252.975 113.507 252.943Q113.664 252.912 113.82 252.873Q113.975 252.834 114.129 252.788Q114.282 252.741 114.433 252.687Q114.584 252.633 114.732 252.572Q114.88 252.51 115.025 252.442Q115.17 252.373 115.312 252.298Q115.453 252.222 115.591 252.14Q115.728 252.057 115.861 251.968Q115.995 251.879 116.123 251.784Q116.252 251.688 116.376 251.586Q116.5 251.485 116.619 251.377Q116.738 251.269 116.851 251.156Q116.964 251.043 117.072 250.924Q117.18 250.805 117.282 250.681Q117.383 250.557 117.479 250.428Q117.574 250.3 117.663 250.166Q117.752 250.033 117.835 249.895Q117.917 249.758 117.993 249.617Q118.068 249.475 118.137 249.33Q118.206 249.185 118.267 249.037Q118.328 248.889 118.382 248.738Q118.436 248.587 118.483 248.434Q118.529 248.28 118.568 248.125Q118.607 247.969 118.639 247.812Q118.67 247.655 118.693 247.496Q118.717 247.337 118.733 247.178Q118.748 247.018 118.756 246.858Q118.764 246.698 118.764 246.538L118.764 233.68Q118.764 233.324 118.736 232.97Q118.707 232.615 118.651 232.264Q118.594 231.913 118.51 231.568Q118.425 231.223 118.314 230.885Q118.202 230.547 118.064 230.22Q117.926 229.892 117.762 229.577Q117.598 229.261 117.409 228.96Q117.221 228.658 117.009 228.373Q116.797 228.088 116.562 227.82Q116.328 227.553 116.074 227.304Q115.819 227.056 115.545 226.829Q115.271 226.603 114.981 226.398Q114.69 226.194 114.383 226.013Q114.077 225.833 113.757 225.677Q113.437 225.522 113.106 225.392Q112.775 225.263 112.435 225.16L105.623 223.106Q105.5 223.069 105.378 223.028L88.4267 217.378Q87.5 217.069 86.6624 216.566L68.5255 205.684Q67.5 205.069 66.6733 204.205L56.6675 193.744Q56.5 193.569 56.3232 193.403L49.6612 187.158Q49.0852 186.617 48.6132 185.984Q48.1413 185.351 47.7882 184.645L42.5 174.069L36.9512 162.971Q36.5 162.069 36.2623 161.088L32.5608 145.82Q32.5 145.569 32.4538 145.315L29.6435 129.858Q29.5 129.069 29.5 128.267L29.5 117.622Q29.5 116.569 29.7457 115.545L32.3969 104.498Q32.5 104.069 32.6451 103.652L36.335 93.0434Q36.5 92.5689 36.7174 92.116L42.4002 80.2768Q42.5 80.0689 42.6104 79.8664L48.1254 69.7557Q48.5 69.0689 48.9888 68.458L56.1921 59.4537Q56.5 59.0689 56.8485 58.7204L63.2905 52.2784Q63.5 52.0689 63.723 51.8738L70.5754 45.878Q71.5 45.0689 72.6093 44.5407L81.7793 40.174Q82 40.0689 82.2146 39.9518L87.2501 37.2052Q87.5 37.0689 87.7407 36.9169L96.5349 31.3626Q97 31.0689 97.4977 30.8347L103.7 27.9159Q104.589 27.4975 105.548 27.2832Q106.507 27.0689 107.489 27.0689L112.233 27.0689Q112.393 27.0689 112.553 27.061Q112.713 27.0532 112.873 27.0375Q113.033 27.0217 113.191 26.9982Q113.35 26.9747 113.507 26.9434Q113.664 26.9121 113.82 26.8732Q113.975 26.8342 114.129 26.7877Q114.282 26.7411 114.433 26.6871Q114.584 26.6331 114.732 26.5717Q114.88 26.5104 115.025 26.4418Q115.17 26.3733 115.312 26.2977Q115.453 26.2221 115.591 26.1397Q115.728 26.0573 115.861 25.9682Q115.995 25.8791 116.123 25.7836Q116.252 25.6881 116.376 25.5864Q116.5 25.4847 116.619 25.377Q116.738 25.2693 116.851 25.1559Q116.964 25.0426 117.072 24.9238Q117.18 24.805 117.282 24.681Q117.383 24.5571 117.479 24.4283Q117.574 24.2995 117.663 24.1662Q117.752 24.0329 117.835 23.8954Q117.917 23.7579 117.993 23.6165Q118.068 23.4751 118.137 23.3301Q118.206 23.1852 118.267 23.0371Q118.328 22.8889 118.382 22.738Q118.436 22.587 118.483 22.4336Q118.529 22.2802 118.568 22.1246Q118.607 21.9691 118.639 21.8118Q118.67 21.6546 118.693 21.496Q118.717 21.3374 118.733 21.1778Q118.748 21.0183 118.756 20.8581Q118.764 20.698 118.764 20.5377L118.764 6.46485Q118.764 6.30512 118.756 6.14558Q118.748 5.98605 118.733 5.82709Q118.717 5.66814 118.693 5.51016Q118.67 5.35218 118.638 5.19555Q118.607 5.03893 118.568 4.88405Q118.529 4.72916 118.482 4.5764Q118.435 4.42363 118.381 4.27336Q118.327 4.12308 118.266 3.97567Q118.204 3.82825 118.135 3.68405Q118.067 3.53985 117.991 3.39922Q117.915 3.25858 117.833 3.12187Q117.75 2.98515 117.661 2.85267Q117.572 2.7202 117.476 2.5923Q117.38 2.46439 117.278 2.34137Q117.176 2.21835 117.069 2.10051Q116.961 1.98267 116.847 1.8703Q116.734 1.75793 116.615 1.6513Q116.496 1.54467 116.372 1.44405Q116.248 1.34342 116.119 1.24905Q115.99 1.15467 115.857 1.06678Q115.723 0.97888 115.586 0.897678Q115.448 0.816476 115.307 0.742167Q115.165 0.667858 115.02 0.600622Q114.876 0.533386 114.728 0.473388Q114.579 0.41339 114.429 0.360776Q114.278 0.308161 114.125 0.26306Q113.971 0.217958 113.816 0.180479Q113.661 0.143 113.504 0.113235Q113.347 0.0834695 113.189 0.0614909Q113.031 0.0395124 112.871 0.0253741Q112.712 0.0112358 112.553 0.00497222Q112.393 -0.00129132 112.233 0.000335187L112.233 0.000335172Z" fill="none" stroke-width="13" stroke="#000031" transform="translate(0 0.14)" />
    <path d="M22.3434 175.625L18.0951 175.128Q17.5552 175.065 17.0451 174.877Q16.5349 174.69 16.0826 174.388L9.67411 170.116Q9.5 170 9.33154 169.876L3.6199 165.667Q3.20045 165.358 2.81993 165.002Q2.43941 164.646 2.10303 164.248Q1.76665 163.851 1.479 163.416Q1.19135 162.982 0.956369 162.517Q0.721387 162.052 0.542281 161.562Q0.363175 161.073 0.242394 160.566Q0.121612 160.059 0.0608062 159.542Q0 159.025 0 158.504L0 14.4964Q0 13.9754 0.060806 13.458Q0.121612 12.9405 0.242393 12.4337Q0.363174 11.9268 0.54228 11.4376Q0.721385 10.9483 0.956367 10.4833Q1.19135 10.0182 1.479 9.58381Q1.76664 9.14938 2.10302 8.75149Q2.43941 8.35361 2.81992 7.99769Q3.20044 7.64178 3.6199 7.33271L8.58339 3.6754Q9.5 3 10.5571 2.57715L15.4089 0.636446Q16.1972 0.32112 17.0309 0.16056Q17.8646 0 18.7137 0L22.3339 0Q22.4599 0 22.5857 0.0061827Q22.7116 0.0123654 22.837 0.0247159Q22.9624 0.0370664 23.087 0.0555549Q23.2116 0.0740435 23.3352 0.0986255Q23.4588 0.123208 23.581 0.153824Q23.7033 0.18444 23.8238 0.221017Q23.9444 0.257594 24.0631 0.300043Q24.1817 0.342493 24.2981 0.390712Q24.4145 0.438931 24.5284 0.492805Q24.6423 0.546678 24.7535 0.606076Q24.8646 0.665474 24.9727 0.730252Q25.0807 0.795031 25.1855 0.865035Q25.2903 0.935039 25.3915 1.0101Q25.4927 1.08516 25.5901 1.16509Q25.6875 1.24503 25.7808 1.32965Q25.8742 1.41427 25.9633 1.50337Q26.0524 1.59246 26.137 1.68583Q26.2216 1.77919 26.3016 1.87659Q26.3815 1.97399 26.4566 2.0752Q26.5316 2.17641 26.6016 2.28117Q26.6716 2.38594 26.7364 2.49402Q26.8012 2.6021 26.8606 2.71322Q26.92 2.82435 26.9739 2.93825Q27.0277 3.05216 27.076 3.16857Q27.1242 3.28498 27.1666 3.40362Q27.2091 3.52226 27.2457 3.64284Q27.2822 3.76341 27.3129 3.88564Q27.3435 4.00787 27.368 4.13145Q27.3926 4.25503 27.4111 4.37967Q27.4296 4.50431 27.442 4.62971Q27.4543 4.75511 27.4605 4.88096Q27.4667 5.00681 27.4667 5.13281L27.4667 171.066Q27.4667 171.187 27.4603 171.308Q27.4539 171.429 27.4412 171.55Q27.4284 171.67 27.4094 171.789Q27.3903 171.909 27.365 172.027Q27.3396 172.146 27.3081 172.263Q27.2765 172.379 27.2389 172.494Q27.2012 172.609 27.1576 172.722Q27.1139 172.835 27.0644 172.946Q27.0148 173.056 26.9595 173.164Q26.9042 173.271 26.8433 173.376Q26.7824 173.481 26.7161 173.582Q26.6497 173.683 26.5782 173.781Q26.5066 173.878 26.43 173.972Q26.3533 174.066 26.2719 174.155Q26.1904 174.245 26.1044 174.33Q26.0183 174.415 25.9279 174.495Q25.8375 174.576 25.743 174.651Q25.6484 174.727 25.55 174.797Q25.4517 174.868 25.3497 174.933Q25.2477 174.998 25.1425 175.058Q25.0372 175.118 24.9289 175.172Q24.8207 175.226 24.7097 175.274Q24.5988 175.323 24.4854 175.365Q24.372 175.408 24.2566 175.444Q24.1412 175.48 24.024 175.511Q23.9068 175.541 23.7882 175.565Q23.6695 175.589 23.5498 175.607Q23.4301 175.624 23.3096 175.636Q23.1891 175.647 23.0682 175.652Q22.9472 175.657 22.8262 175.656Q22.7052 175.655 22.5844 175.647Q22.4636 175.639 22.3434 175.625Z" fill="none" stroke-width="13" stroke="#000031" transform="translate(90.5 27.275)" />
  </g>
</svg>
