<?xml version="1.0" encoding="utf-8"?>
<svg width="44" height="31" viewBox="0 0 44 31" fill="none" xmlns="http://www.w3.org/2000/svg">
  <g transform="translate(7 7)">
    <g transform="matrix(1 -0 0 1 0 0)">
      <path d="M0 0L15.3629 17.0001L30.0001 -8.9407e-07" />
      <path d="M9.43485 4.44089e-16L5.19351 -4.69334Q5.0783 -4.82083 4.95696 -4.94252Q4.83563 -5.06421 4.70847 -5.17979Q4.58132 -5.29538 4.44864 -5.40459Q4.31597 -5.5138 4.17809 -5.61636Q4.04022 -5.71893 3.89748 -5.81461Q3.75474 -5.91028 3.60747 -5.99884Q3.46021 -6.0874 3.30878 -6.16863Q3.15735 -6.24985 3.00211 -6.32355Q2.84688 -6.39725 2.68822 -6.46324Q2.52955 -6.52923 2.36784 -6.58736Q2.20613 -6.64549 2.04176 -6.69561Q1.8774 -6.74573 1.71077 -6.78773Q1.54414 -6.82973 1.37565 -6.8635Q1.20716 -6.89727 1.03721 -6.92273Q0.86727 -6.94819 0.696282 -6.96528Q0.525294 -6.98238 0.353673 -6.99106Q0.182052 -6.99974 0.0102123 -6.99999Q-0.161628 -7.00024 -0.333273 -6.99206Q-0.504919 -6.98388 -0.675956 -6.96729Q-0.846993 -6.95069 -1.01701 -6.92572Q-1.18703 -6.90076 -1.35561 -6.86748Q-1.5242 -6.8342 -1.69095 -6.79269Q-1.8577 -6.75118 -2.02222 -6.70154Q-2.18673 -6.6519 -2.34861 -6.59424Q-2.51049 -6.53658 -2.66935 -6.47106Q-2.8282 -6.40553 -2.98365 -6.33228Q-3.1391 -6.25904 -3.29077 -6.17826Q-3.44243 -6.09747 -3.58996 -6.00934Q-3.73748 -5.92121 -3.8805 -5.82595Q-4.02352 -5.73069 -4.16169 -5.62853Q-4.29986 -5.52637 -4.43285 -5.41755Q-4.56585 -5.30872 -4.69334 -5.19351Q-4.82083 -5.07829 -4.94252 -4.95696Q-5.06421 -4.83563 -5.17979 -4.70847Q-5.29538 -4.58132 -5.40459 -4.44864Q-5.5138 -4.31597 -5.61636 -4.17809Q-5.71893 -4.04022 -5.81461 -3.89748Q-5.91028 -3.75474 -5.99884 -3.60747Q-6.0874 -3.46021 -6.16863 -3.30878Q-6.24985 -3.15735 -6.32355 -3.00211Q-6.39725 -2.84688 -6.46324 -2.68822Q-6.52923 -2.52955 -6.58736 -2.36784Q-6.64549 -2.20613 -6.69561 -2.04176Q-6.74573 -1.87739 -6.78773 -1.71076Q-6.82973 -1.54414 -6.8635 -1.37565Q-6.89727 -1.20716 -6.92273 -1.03721Q-6.94819 -0.86727 -6.96528 -0.696281Q-6.98238 -0.525293 -6.99106 -0.353673Q-6.99974 -0.182052 -6.99999 -0.0102115Q-7.00024 0.161629 -6.99206 0.333274Q-6.98388 0.50492 -6.96729 0.675957Q-6.95069 0.846994 -6.92573 1.01701Q-6.90076 1.18703 -6.86748 1.35562Q-6.8342 1.5242 -6.79269 1.69095Q-6.75118 1.85771 -6.70154 2.02222Q-6.6519 2.18673 -6.59424 2.34861Q-6.53659 2.51049 -6.47106 2.66935Q-6.40553 2.8282 -6.33228 2.98365Q-6.25904 3.1391 -6.17826 3.29077Q-6.09747 3.44244 -6.00934 3.58996Q-5.92122 3.73748 -5.82595 3.8805Q-5.73069 4.02352 -5.62853 4.16169Q-5.52637 4.29986 -5.41755 4.43285Q-5.30873 4.56585 -5.19351 4.69334L10.1693 21.6934Q10.3999 21.9486 10.6544 22.1799Q10.9088 22.4112 11.1848 22.6164Q11.4607 22.8217 11.7554 22.9989Q12.0501 23.1761 12.3607 23.3236Q12.6714 23.4711 12.995 23.5874Q13.3186 23.7038 13.6521 23.7878Q13.9855 23.8718 14.3256 23.9228Q14.6657 23.9738 15.0092 23.9911Q15.3526 24.0085 15.6961 23.9921Q16.0396 23.9758 16.3799 23.9258Q16.7201 23.8758 17.0538 23.7928Q17.3875 23.7097 17.7115 23.5943Q18.0354 23.4789 18.3465 23.3324Q18.6576 23.1858 18.9528 23.0094Q19.248 22.8331 19.5245 22.6286Q19.8011 22.4242 20.0562 22.1936Q20.3815 21.8997 20.6675 21.5674L35.3048 4.56736Q35.4169 4.43714 35.5225 4.30157Q35.6281 4.16601 35.7269 4.02542Q35.8257 3.88484 35.9175 3.73957Q36.0093 3.59431 36.0939 3.44472Q36.1785 3.29512 36.2556 3.14156Q36.3327 2.988 36.4022 2.83084Q36.4717 2.67367 36.5334 2.51329Q36.5951 2.35291 36.6488 2.18969Q36.7026 2.02648 36.7483 1.86082Q36.7939 1.69516 36.8314 1.52746Q36.8689 1.35976 36.8982 1.19043Q36.9274 1.02109 36.9483 0.850522Q36.9691 0.679955 36.9816 0.508568Q36.9941 0.337182 36.9982 0.16539Q37.0022 -0.00640269 36.9979 -0.178187Q36.9935 -0.349972 36.9807 -0.521335Q36.9679 -0.692698 36.9467 -0.863227Q36.9255 -1.03376 36.896 -1.20304Q36.8664 -1.37232 36.8286 -1.53995Q36.7908 -1.70758 36.7448 -1.87316Q36.6989 -2.03873 36.6448 -2.20185Q36.5908 -2.36497 36.5288 -2.52524Q36.4668 -2.68551 36.397 -2.84254Q36.3272 -2.99957 36.2498 -3.153Q36.1724 -3.30642 36.0876 -3.45585Q36.0027 -3.60529 35.9107 -3.75039Q35.8186 -3.89549 35.7195 -4.03589Q35.6205 -4.17629 35.5146 -4.31167Q35.4088 -4.44704 35.2964 -4.57705Q35.184 -4.70707 35.0654 -4.83142Q34.9468 -4.95576 34.8223 -5.07414Q34.6977 -5.19252 34.5675 -5.30464Q34.4373 -5.41676 34.3017 -5.52236Q34.1661 -5.62796 34.0255 -5.72678Q33.885 -5.8256 33.7397 -5.9174Q33.5944 -6.0092 33.4448 -6.09376Q33.2952 -6.17832 33.1417 -6.25545Q32.9881 -6.33257 32.831 -6.40206Q32.6738 -6.47155 32.5134 -6.53325Q32.353 -6.59495 32.1898 -6.6487Q32.0266 -6.70246 31.8609 -6.74814Q31.6953 -6.79382 31.5276 -6.83131Q31.3599 -6.86881 31.1905 -6.89803Q31.0212 -6.92726 30.8506 -6.94814Q30.6801 -6.96902 30.5087 -6.9815Q30.3373 -6.99399 30.1655 -6.99804Q29.9937 -7.0021 29.8219 -6.99773Q29.6501 -6.99336 29.4788 -6.98056Q29.3074 -6.96776 29.1369 -6.94657Q28.9664 -6.92538 28.7971 -6.89585Q28.6278 -6.86631 28.4602 -6.82851Q28.2925 -6.79071 28.127 -6.74472Q27.9614 -6.69874 27.7983 -6.64469Q27.6352 -6.59063 27.4749 -6.52864Q27.3146 -6.46665 27.1576 -6.39687Q27.0005 -6.32709 26.8471 -6.24969Q26.6937 -6.17229 26.5443 -6.08745Q26.3948 -6.00261 26.2497 -5.91055Q26.1046 -5.81848 25.9642 -5.71941Q25.8238 -5.62033 25.6885 -5.51448Q25.5531 -5.40864 25.4231 -5.29628Q25.2931 -5.18392 25.1687 -5.06531Q25.0444 -4.94671 24.926 -4.82215Q24.8076 -4.69758 24.6955 -4.56736L20.7629 4.44089e-16L30.0001 0L19.9662 11.6537L15.3629 17.0001L0 0L9.43485 0L9.43485 4.44089e-16Z" fill="#808080" fill-rule="evenodd" />
    </g>
  </g>
</svg>