<?xml version="1.0" encoding="utf-8"?>
<svg width="43.009" height="35.639" viewBox="0 0 43.009 35.639" fill="none" xmlns="http://www.w3.org/2000/svg">
  <g transform="translate(1.5 1.5)">
    <path d="M0 5.43244L0 20.9058Q0 21.0046 0.00672572 21.1032Q0.0134514 21.2018 0.0268717 21.2997Q0.0402919 21.3976 0.0603445 21.4944Q0.080397 21.5911 0.106989 21.6863Q0.133581 21.7815 0.166588 21.8746Q0.199596 21.9678 0.238867 22.0584Q0.278138 22.1491 0.323489 22.2369Q0.36884 22.3247 0.420062 22.4092Q0.471284 22.4937 0.528139 22.5745Q0.584994 22.6554 0.647217 22.7321Q0.709441 22.8089 0.776746 22.8812Q0.84405 22.9536 0.916123 23.0212Q0.988196 23.0888 1.0647 23.1514Q1.14121 23.2139 1.2218 23.2711Q1.30238 23.3283 1.38668 23.3799Q1.47097 23.4314 1.55857 23.4771Q1.64618 23.5229 1.7367 23.5625Q1.82721 23.6022 1.92022 23.6355Q2.01322 23.6689 2.10828 23.6959Q2.20334 23.7229 2.30002 23.7434Q2.3967 23.7638 2.49454 23.7777Q2.59239 23.7915 2.69095 23.7986Q2.78951 23.8058 2.88832 23.8062Q2.98714 23.8066 3.08576 23.8003Q3.18437 23.7939 3.28233 23.7809Q3.38029 23.7679 3.47713 23.7483Q3.57397 23.7286 3.66926 23.7024Q3.76454 23.6762 3.85782 23.6436Q3.9511 23.611 4.04194 23.5721Q4.13278 23.5332 4.22076 23.4882Q4.30875 23.4432 4.39347 23.3924Q4.47819 23.3415 4.55925 23.285L15.8802 15.3916Q15.9524 15.3412 16.0215 15.2865Q16.0905 15.2319 16.1562 15.1731Q16.2218 15.1144 16.2837 15.0517Q16.3456 14.9891 16.4036 14.9229Q16.4616 14.8566 16.5155 14.7869Q16.5694 14.7173 16.619 14.6445Q16.6685 14.5717 16.7136 14.496Q16.7586 14.4203 16.799 14.3421Q16.8394 14.2638 16.8749 14.1832Q16.9105 14.1026 16.9411 14.0201Q16.9717 13.9375 16.9972 13.8532Q17.0227 13.7689 17.0431 13.6832Q17.0635 13.5975 17.0786 13.5108Q17.0937 13.424 17.1036 13.3365Q17.1134 13.249 17.1179 13.161Q17.1224 13.0731 17.1216 12.985Q17.1208 12.8969 17.1146 12.8091Q17.1084 12.7212 17.0969 12.6339Q17.0854 12.5466 17.0687 12.4602Q17.0519 12.3737 17.0299 12.2884Q17.0079 12.2031 16.9808 12.1193Q16.9537 12.0356 16.9216 11.9536Q16.8894 11.8716 16.8523 11.7917Q16.8153 11.7118 16.7734 11.6343Q16.7316 11.5568 16.6851 11.482Q16.6387 11.4072 16.5877 11.3353Q16.5368 11.2635 16.4816 11.1948Q16.4264 11.1262 16.3672 11.0611Q16.3079 10.9959 16.2448 10.9345Q16.1817 10.873 16.115 10.8155Q16.0483 10.758 15.9783 10.7047Q15.9082 10.6513 15.835 10.6023L4.51405 3.02238Q4.43264 2.96788 4.34775 2.91899Q4.26286 2.87011 4.17486 2.82706Q4.08687 2.78402 3.99617 2.74701Q3.90546 2.71 3.81247 2.67919Q3.71948 2.64838 3.62462 2.62392Q3.52976 2.59946 3.43347 2.58146Q3.33718 2.56345 3.23989 2.55199Q3.1426 2.54052 3.04476 2.53564Q2.94692 2.53077 2.84898 2.5325Q2.75103 2.53424 2.65343 2.54258Q2.55582 2.55092 2.459 2.56583Q2.36218 2.58074 2.26659 2.60214Q2.17099 2.62355 2.07706 2.65136Q1.98313 2.67917 1.89129 2.71325Q1.79945 2.74733 1.71012 2.78753Q1.62078 2.82774 1.53437 2.87387Q1.44795 2.92001 1.36485 2.97188Q1.28174 3.02374 1.20232 3.08109Q1.12291 3.13844 1.04754 3.20102Q0.972172 3.2636 0.9012 3.33113Q0.830228 3.39865 0.763973 3.47081Q0.697719 3.54297 0.636484 3.61943Q0.57525 3.69589 0.519314 3.77632Q0.463378 3.85674 0.412996 3.94075Q0.362614 4.02476 0.318015 4.11198Q0.273416 4.1992 0.234804 4.28923Q0.196192 4.37926 0.163743 4.47169Q0.131294 4.56413 0.105155 4.65854Q0.0790165 4.75294 0.0593075 4.8489Q0.0395985 4.94486 0.026409 5.04193Q0.0132196 5.139 0.00660979 5.23674Q0 5.33448 0 5.43244Z" fill="none" stroke-width="3" stroke="#808080" transform="translate(0 3.036)" />
    <path d="M0 5.72994L0 27.0386Q0 27.1377 0.00676399 27.2366Q0.013528 27.3355 0.0270244 27.4336Q0.0405208 27.5318 0.0606868 27.6288Q0.0808527 27.7259 0.107594 27.8213Q0.134335 27.9167 0.167527 28.0101Q0.200719 28.1035 0.240207 28.1944Q0.279695 28.2852 0.325295 28.3732Q0.370895 28.4612 0.422393 28.5459Q0.473892 28.6306 0.53105 28.7115Q0.588207 28.7925 0.650757 28.8693Q0.713307 28.9462 0.780957 29.0186Q0.848607 29.091 0.921042 29.1586Q0.993478 29.2263 1.07036 29.2888Q1.14724 29.3513 1.22821 29.4085Q1.30918 29.4656 1.39387 29.5171Q1.47855 29.5685 1.56654 29.6141Q1.65454 29.6597 1.74545 29.6992Q1.83635 29.7386 1.92973 29.7718Q2.02312 29.8049 2.11855 29.8317Q2.21398 29.8584 2.31101 29.8785Q2.40804 29.8987 2.50622 29.9121Q2.6044 29.9256 2.70327 29.9323Q2.80214 29.9391 2.90124 29.939Q3.00033 29.939 3.0992 29.9322Q3.19807 29.9254 3.29624 29.9119Q3.39441 29.8984 3.49143 29.8782Q3.58845 29.858 3.68386 29.8312Q3.77928 29.8044 3.87264 29.7712Q3.96601 29.738 4.05689 29.6985Q4.14777 29.659 4.23574 29.6133Q4.32371 29.5677 4.40836 29.5162Q4.49301 29.4647 4.57395 29.4075L19.3595 18.9617Q19.4296 18.9122 19.4966 18.8586Q19.5637 18.8051 19.6274 18.7476Q19.6912 18.6902 19.7514 18.6291Q19.8117 18.568 19.8682 18.5034Q19.9247 18.4388 19.9773 18.371Q20.0299 18.3033 20.0784 18.2325Q20.1269 18.1617 20.1712 18.0882Q20.2154 18.0146 20.2552 17.9386Q20.2951 17.8626 20.3303 17.7844Q20.3656 17.7062 20.3961 17.626Q20.4267 17.5458 20.4525 17.464Q20.4782 17.3821 20.4991 17.2989Q20.52 17.2157 20.5359 17.1313Q20.5519 17.047 20.5628 16.9619Q20.5737 16.8768 20.5796 16.7912Q20.5854 16.7056 20.5862 16.6198Q20.587 16.534 20.5828 16.4483Q20.5785 16.3626 20.5691 16.2773Q20.5598 16.192 20.5454 16.1074Q20.5311 16.0228 20.5117 15.9392Q20.4924 15.8556 20.4682 15.7733Q20.4439 15.691 20.4148 15.6102Q20.3858 15.5295 20.352 15.4506Q20.3182 15.3717 20.2798 15.295Q20.2414 15.2183 20.1985 15.1439Q20.1557 15.0696 20.1085 14.9979Q20.0613 14.9263 20.0099 14.8575Q19.9586 14.7887 19.9033 14.7231Q19.848 14.6575 19.7889 14.5953Q19.7298 14.5331 19.6671 14.4745Q19.6044 14.4159 19.5384 14.3611Q19.4724 14.3063 19.4032 14.2555L4.61765 3.39257Q4.53711 3.3334 4.45268 3.27991Q4.36826 3.22642 4.28036 3.17887Q4.19245 3.13132 4.10148 3.08993Q4.01051 3.04854 3.91691 3.01352Q3.82331 2.97849 3.72752 2.94999Q3.63173 2.92149 3.5342 2.89965Q3.43668 2.87781 3.33788 2.86273Q3.23908 2.84766 3.13948 2.83942Q3.03988 2.83118 2.93995 2.82982Q2.84001 2.82845 2.74023 2.83397Q2.64044 2.83949 2.54126 2.85187Q2.44209 2.86424 2.34401 2.88341Q2.24592 2.90258 2.14939 2.92846Q2.05286 2.95434 1.95833 2.9868Q1.86381 3.01926 1.77175 3.05815Q1.67968 3.09704 1.59051 3.14218Q1.50135 3.18732 1.4155 3.23848Q1.32965 3.28965 1.24752 3.3466Q1.1654 3.40356 1.08739 3.46603Q1.00938 3.5285 0.935853 3.5962Q0.862329 3.66389 0.793639 3.73648Q0.724948 3.80908 0.661418 3.88623Q0.597888 3.96338 0.539819 4.04472Q0.48175 4.12606 0.429417 4.2112Q0.377085 4.29635 0.330738 4.38489Q0.28439 4.47344 0.244248 4.56496Q0.204105 4.65649 0.170358 4.75056Q0.13661 4.84463 0.109418 4.9408Q0.0822262 5.03697 0.0617186 5.13478Q0.0412109 5.2326 0.0274848 5.33159Q0.0137587 5.43059 0.00687936 5.53029Q0 5.63 0 5.72994L0 5.72994Z" fill="none" stroke-width="3" stroke="#808080" transform="translate(17.362 0)" />
  </g>
</svg>