<?xml version="1.0" encoding="utf-8"?>
<svg width="103" height="98" viewBox="0 0 103 98" fill="none" xmlns="http://www.w3.org/2000/svg">
  <g>
    <path d="M54 0C81.0656 0 103 21.9344 103 49L103 49C103 76.0656 81.0656 98 54 98L49 98C21.9344 98 0 76.0656 0 49L0 49C0 21.9344 21.9344 0 49 0L54 0Z" fill="#050817" />
    <path d="M0 7.61435L0 48.6335Q0 48.7842 0.00926012 48.9346Q0.0185202 49.085 0.0370055 49.2345Q0.0554907 49.3841 0.0831312 49.5322Q0.110772 49.6803 0.147463 49.8264Q0.184154 49.9725 0.229757 50.1162Q0.27536 50.2598 0.329703 50.4003Q0.384046 50.5408 0.446923 50.6777Q0.509799 50.8147 0.580973 50.9475Q0.652146 51.0803 0.731346 51.2084Q0.810547 51.3366 0.897475 51.4597Q0.984404 51.5827 1.07873 51.7002Q1.17306 51.8177 1.27443 51.9292Q1.3758 52.0407 1.48383 52.1457Q1.59186 52.2507 1.70614 52.3489Q1.82042 52.4471 1.94052 52.5381Q2.06062 52.6291 2.18608 52.7125Q2.31154 52.7959 2.4419 52.8715Q2.57225 52.947 2.707 53.0145Q2.84175 53.0819 2.98039 53.1409Q3.11903 53.1999 3.26104 53.2502Q3.40304 53.3006 3.54787 53.3421Q3.6927 53.3837 3.83981 53.4162Q3.98692 53.4488 4.13575 53.4722Q4.28458 53.4957 4.43458 53.51Q4.58457 53.5242 4.73516 53.5293Q4.88574 53.5343 5.03635 53.53Q5.18696 53.5258 5.33703 53.5123Q5.48709 53.4988 5.63605 53.4761Q5.785 53.4534 5.93228 53.4216Q6.07955 53.3898 6.2246 53.3491Q6.36964 53.3083 6.5119 53.2586Q6.65416 53.209 6.79311 53.1507L53.6722 33.4879Q53.8358 33.4193 53.994 33.339Q54.1522 33.2588 54.3042 33.1672Q54.4562 33.0757 54.6012 32.9735Q54.7462 32.8712 54.8833 32.7587Q55.0205 32.6462 55.1492 32.5241Q55.2779 32.402 55.3975 32.2709Q55.517 32.1398 55.6267 32.0003Q55.7364 31.8609 55.8358 31.714Q55.9352 31.567 56.0236 31.4132Q56.1121 31.2594 56.1892 31.0996Q56.2663 30.9398 56.3316 30.7749Q56.397 30.6099 56.4502 30.4407Q56.5034 30.2715 56.5443 30.0988Q56.5852 29.9262 56.6134 29.751Q56.6417 29.5759 56.6572 29.3991Q56.6727 29.2224 56.6754 29.045Q56.6781 28.8676 56.6679 28.6905Q56.6578 28.5134 56.6349 28.3375Q56.6119 28.1615 56.5763 27.9877Q56.5407 27.8139 56.4926 27.6431Q56.4445 27.4724 56.3842 27.3055Q56.3239 27.1387 56.2517 26.9766Q56.1795 26.8146 56.0957 26.6582Q56.0119 26.5018 55.9171 26.3519Q55.8222 26.2019 55.7168 26.0592Q55.6113 25.9166 55.4958 25.7819Q55.3803 25.6472 55.2554 25.5213Q55.1305 25.3953 54.9968 25.2787Q54.863 25.1621 54.7212 25.0555Q54.5794 24.9489 54.4303 24.8528Q54.2811 24.7567 54.1254 24.6717Q53.9697 24.5866 53.8083 24.5131L6.92918 3.15668Q6.78996 3.09326 6.64704 3.03864Q6.50413 2.98403 6.35809 2.93844Q6.21205 2.89285 6.06344 2.85646Q5.91484 2.82008 5.76425 2.79303Q5.61367 2.76599 5.46169 2.7484Q5.30971 2.73081 5.15693 2.72273Q5.00415 2.71466 4.85117 2.71614Q4.69818 2.71761 4.54558 2.72863Q4.39299 2.73966 4.24138 2.76018Q4.08977 2.7807 3.93973 2.81064Q3.7897 2.84059 3.64183 2.87983Q3.49395 2.91908 3.34882 2.96748Q3.20368 3.01588 3.06185 3.07324Q2.92002 3.1306 2.78204 3.19671Q2.64406 3.26281 2.51048 3.33739Q2.3769 3.41197 2.24823 3.49475Q2.11956 3.57752 1.99631 3.66816Q1.87306 3.75881 1.7557 3.85696Q1.63835 3.95512 1.52735 4.06041Q1.41635 4.1657 1.31214 4.27771Q1.20792 4.38972 1.1109 4.50802Q1.01388 4.62632 0.924434 4.75044Q0.834985 4.87456 0.753456 5.00402Q0.671928 5.13348 0.598637 5.26777Q0.525346 5.40207 0.460579 5.54068Q0.395812 5.67929 0.339821 5.82167Q0.28383 5.96405 0.236834 6.10964Q0.189837 6.25524 0.152018 6.40348Q0.114199 6.55173 0.0857051 6.70204Q0.0572111 6.85236 0.0381531 7.00416Q0.0190952 7.15596 0.00954759 7.30866Q0 7.46135 0 7.61435L0 7.61435Z" fill="none" stroke-width="6" stroke="#808080" transform="translate(28 19)" />
  </g>
</svg>