<?xml version="1.0" encoding="utf-8"?>
<svg width="70" height="64" viewBox="0 0 70 64" fill="none" xmlns="http://www.w3.org/2000/svg">
  <path d="M0 7.72757L0 50.5314Q0 50.683 0.00937971 50.8343Q0.0187594 50.9857 0.0374829 51.1362Q0.0562064 51.2867 0.084202 51.4357Q0.112198 51.5847 0.149358 51.7317Q0.186518 51.8788 0.232701 52.0232Q0.278884 52.1676 0.333913 52.3089Q0.388942 52.4502 0.452605 52.5879Q0.516269 52.7255 0.588324 52.8589Q0.660379 52.9924 0.740549 53.1211Q0.820719 53.2498 0.908697 53.3733Q0.996675 53.4968 1.09212 53.6146Q1.18757 53.7325 1.29013 53.8442Q1.39268 53.9559 1.50195 54.061Q1.61122 54.1662 1.72678 54.2644Q1.84234 54.3625 1.96376 54.4534Q2.08517 54.5442 2.21198 54.6274Q2.33878 54.7106 2.47048 54.7857Q2.60218 54.8609 2.73828 54.9278Q2.87438 54.9946 3.01436 55.053Q3.15433 55.1113 3.29765 55.1608Q3.44096 55.2104 3.58707 55.251Q3.73317 55.2916 3.88151 55.3231Q4.02985 55.3545 4.17985 55.3768Q4.32985 55.399 4.48094 55.412Q4.63203 55.4249 4.78363 55.4284Q4.93523 55.432 5.08676 55.4262Q5.23828 55.4203 5.38916 55.4051Q5.54004 55.39 5.68969 55.3655Q5.83934 55.341 5.98719 55.3073Q6.13503 55.2736 6.28052 55.2308Q6.42599 55.188 6.56855 55.1363Q6.71111 55.0846 6.85019 55.0242L54.082 34.5059Q54.2429 34.436 54.3983 34.3548Q54.5538 34.2736 54.7031 34.1814Q54.8524 34.0893 54.9947 33.9867Q55.137 33.8842 55.2716 33.7717Q55.4062 33.6592 55.5324 33.5373Q55.6586 33.4155 55.7757 33.285Q55.8929 33.1544 56.0004 33.0158Q56.108 32.8772 56.2053 32.7313Q56.3026 32.5854 56.3893 32.4328Q56.4759 32.2803 56.5515 32.122Q56.627 31.9637 56.691 31.8003Q56.755 31.637 56.8071 31.4695Q56.8593 31.302 56.8993 31.1313Q56.9394 30.9605 56.9671 30.7873Q56.9948 30.614 57.0101 30.4393Q57.0253 30.2645 57.0281 30.0891Q57.0308 29.9137 57.021 29.7386Q57.0111 29.5635 56.9888 29.3895Q56.9665 29.2155 56.9317 29.0435Q56.897 28.8716 56.8501 28.7026Q56.8031 28.5335 56.7442 28.3683Q56.6853 28.2031 56.6148 28.0425Q56.5442 27.8819 56.4623 27.7268Q56.3804 27.5716 56.2877 27.4227Q56.1949 27.2738 56.0917 27.132Q55.9886 26.9901 55.8755 26.856Q55.7625 26.7219 55.6401 26.5962Q55.5177 26.4705 55.3867 26.3539Q55.2556 26.2373 55.1166 26.1303Q54.9776 26.0234 54.8312 25.9266Q54.6849 25.8299 54.532 25.7439Q54.3791 25.6579 54.2205 25.583L6.98871 3.2975Q6.84941 3.23178 6.70627 3.17494Q6.56312 3.11809 6.41669 3.07036Q6.27025 3.02262 6.12111 2.98418Q5.97196 2.94573 5.8207 2.91673Q5.66943 2.88774 5.51664 2.8683Q5.36386 2.84886 5.21015 2.83906Q5.05644 2.82926 4.90242 2.82913Q4.7484 2.82901 4.59468 2.83856Q4.44096 2.84811 4.28814 2.8673Q4.13532 2.88649 3.98401 2.91524Q3.83269 2.944 3.68349 2.9822Q3.53428 3.0204 3.38777 3.0679Q3.24126 3.1154 3.09802 3.17201Q2.95478 3.22862 2.81538 3.29411Q2.67598 3.35961 2.54097 3.43374Q2.40596 3.50786 2.27588 3.59032Q2.14579 3.67278 2.02114 3.76325Q1.89649 3.85372 1.77778 3.95184Q1.65906 4.04996 1.54674 4.15535Q1.43442 4.26073 1.32894 4.37297Q1.22346 4.4852 1.12524 4.60384Q1.02703 4.72248 0.936455 4.84705Q0.845884 4.97163 0.763318 5.10165Q0.680753 5.23167 0.606518 5.36661Q0.532284 5.50156 0.466674 5.64091Q0.401064 5.78025 0.344337 5.92345Q0.287611 6.06664 0.239993 6.21311Q0.192374 6.35959 0.154052 6.50876Q0.115729 6.65794 0.0868544 6.80923Q0.0579793 6.96051 0.0386656 7.11332Q0.0193519 7.26612 0.00967595 7.41984Q0 7.57355 0 7.72757Z" fill="none" stroke-width="6" stroke="#808080" transform="translate(3 3)" />
</svg>