<?xml version="1.0" encoding="utf-8"?>
<svg width="35" height="35" viewBox="0 0 35 35" fill="none" xmlns="http://www.w3.org/2000/svg">
  <path d="M27.7897 17.5C27.7897 17.5 35 17.5 35 17.5C35 27.165 27.165 35 17.5 35C7.83502 35 0 27.165 0 17.5C0 7.83502 7.83502 0 17.5 0C27.165 0 35 7.83501 35 17.5C35 17.5 27.7897 17.5 27.7897 17.5C27.7897 11.8172 23.1828 7.21035 17.5 7.21035C11.8172 7.21035 7.21034 11.8172 7.21034 17.5C7.21034 23.1828 11.8172 27.7896 17.5 27.7896C23.1828 27.7896 27.7897 23.1828 27.7897 17.5Z" fill="#AC6E55" fill-rule="evenodd" />
</svg>