<?xml version="1.0" encoding="utf-8"?>
<svg width="42" height="30" viewBox="0 0 42 30" fill="none" xmlns="http://www.w3.org/2000/svg">
  <g transform="matrix(1 0 0 -1 6 24)">
    <g transform="matrix(1 -0 0 1 0 0)">
      <path d="M0 0L15.3629 18.0001L30.0001 -8.9407e-07" />
      <path d="M7.88821 0L4.56377 -3.89512Q4.37242 -4.11933 4.16001 -4.3237Q3.9476 -4.52806 3.71618 -4.71063Q3.48476 -4.89319 3.23656 -5.05219Q2.98836 -5.2112 2.72577 -5.3451Q2.46319 -5.47901 2.18874 -5.58654Q1.91429 -5.69407 1.63062 -5.77417Q1.34695 -5.85428 1.0568 -5.9062Q0.766648 -5.95811 0.472804 -5.98134Q0.178959 -6.00457 -0.115747 -5.99888Q-0.410453 -5.9932 -0.703183 -5.95865Q-0.995913 -5.92411 -1.28385 -5.86103Q-1.57178 -5.79796 -1.85215 -5.70697Q-2.13251 -5.61598 -2.40261 -5.49795Q-2.67271 -5.37992 -2.92993 -5.23598Q-3.18716 -5.09204 -3.42904 -4.92358Q-3.67092 -4.75513 -3.89513 -4.56377Q-4.11933 -4.37241 -4.3237 -4.16001Q-4.52806 -3.9476 -4.71063 -3.71618Q-4.89319 -3.48476 -5.0522 -3.23656Q-5.2112 -2.98836 -5.34511 -2.72577Q-5.47901 -2.46319 -5.58654 -2.18874Q-5.69407 -1.91429 -5.77417 -1.63062Q-5.85428 -1.34695 -5.9062 -1.0568Q-5.95812 -0.766647 -5.98134 -0.472803Q-6.00457 -0.178958 -5.99888 0.115748Q-5.9932 0.410454 -5.95865 0.703184Q-5.92411 0.995914 -5.86104 1.28385Q-5.79796 1.57178 -5.70697 1.85215Q-5.61598 2.13251 -5.49795 2.40261Q-5.37992 2.67271 -5.23598 2.92993Q-5.09204 3.18716 -4.92358 3.42904Q-4.75513 3.67092 -4.56377 3.89513L10.7991 21.8952Q10.9904 22.1194 11.2028 22.3238Q11.4153 22.5281 11.6467 22.7107Q11.8781 22.8933 12.1263 23.0523Q12.3745 23.2113 12.6371 23.3452Q12.8997 23.4791 13.1741 23.5866Q13.4486 23.6941 13.7322 23.7742Q14.0159 23.8544 14.3061 23.9063Q14.5962 23.9582 14.89 23.9814Q15.1839 24.0046 15.4786 23.999Q15.7733 23.9933 16.066 23.9587Q16.3588 23.9242 16.6467 23.8611Q16.9346 23.798 17.215 23.707Q17.4954 23.6161 17.7655 23.498Q18.0356 23.38 18.2928 23.2361Q18.55 23.0921 18.7919 22.9237Q19.0338 22.7552 19.258 22.5638Q19.6734 22.2093 20.018 21.7855L34.6553 3.78546Q34.7482 3.67118 34.8354 3.55248Q34.9226 3.43378 35.0039 3.31095Q35.0852 3.18811 35.1603 3.06144Q35.2355 2.93476 35.3043 2.80455Q35.3732 2.67434 35.4355 2.54091Q35.4979 2.40747 35.5537 2.27114Q35.6094 2.13481 35.6584 1.99591Q35.7074 1.857 35.7495 1.71586Q35.7917 1.57472 35.8268 1.43168Q35.862 1.28865 35.89 1.14406Q35.9181 0.999469 35.9391 0.853676Q35.96 0.707883 35.9738 0.561237Q35.9876 0.414591 35.9942 0.267446Q36.0007 0.1203 36.0001 -0.02699Q35.9994 -0.17428 35.9915 -0.321361Q35.9836 -0.468441 35.9685 -0.614957Q35.9534 -0.761473 35.9312 -0.907072Q35.9089 -1.05267 35.8795 -1.197Q35.8501 -1.34133 35.8137 -1.48405Q35.7773 -1.62676 35.7339 -1.76752Q35.6905 -1.90827 35.6402 -2.04673Q35.59 -2.18519 35.533 -2.32101Q35.476 -2.45684 35.4125 -2.5897Q35.3489 -2.72257 35.2789 -2.85215Q35.2089 -2.98174 35.1326 -3.10774Q35.0563 -3.23373 34.9739 -3.35583Q34.8915 -3.47793 34.8032 -3.59584Q34.715 -3.71375 34.621 -3.82718Q34.5271 -3.94062 34.4277 -4.04931Q34.3283 -4.158 34.2236 -4.26168Q34.119 -4.36536 34.0094 -4.46379Q33.8999 -4.56221 33.7856 -4.65514Q33.6713 -4.74807 33.5526 -4.83527Q33.4339 -4.92248 33.3111 -5.00376Q33.1882 -5.08504 33.0616 -5.16019Q32.9349 -5.23535 32.8047 -5.3042Q32.6745 -5.37304 32.541 -5.43542Q32.4076 -5.4978 32.2713 -5.55355Q32.1349 -5.6093 31.996 -5.6583Q31.8571 -5.7073 31.716 -5.74942Q31.5748 -5.79154 31.4318 -5.82669Q31.2888 -5.86183 31.1442 -5.88992Q30.9996 -5.918 30.8538 -5.93896Q30.708 -5.95991 30.5614 -5.97369Q30.4147 -5.98747 30.2676 -5.99404Q30.1204 -6.0006 29.9731 -5.99994Q29.8258 -5.99928 29.6788 -5.99139Q29.5317 -5.9835 29.3852 -5.9684Q29.2386 -5.95331 29.0931 -5.93104Q28.9475 -5.90877 28.8031 -5.87939Q28.6588 -5.85 28.5161 -5.81357Q28.3734 -5.77714 28.2326 -5.73375Q28.0919 -5.69036 27.9534 -5.64011Q27.8149 -5.58987 27.6791 -5.53289Q27.5433 -5.47591 27.4104 -5.41234Q27.2776 -5.34877 27.148 -5.27875Q27.0184 -5.20873 26.8924 -5.13244Q26.7664 -5.05615 26.6443 -4.97377Q26.5222 -4.89139 26.4043 -4.80312Q26.2864 -4.71485 26.1729 -4.62089Q26.0595 -4.52694 25.9508 -4.42754Q25.8421 -4.32813 25.7384 -4.22351Q25.6348 -4.11889 25.5363 -4.00931Q25.4379 -3.89973 25.345 -3.78546L22.2667 -4.44089e-16L30.0001 0L19.2116 13.2671L15.3629 18.0001L11.4026 13.36L-4.76837e-07 0L7.88821 0Z" fill="#808080" fill-rule="evenodd" />
    </g>
  </g>
</svg>