<?xml version="1.0" encoding="utf-8"?>
<svg width="50" height="45" viewBox="0 0 50 45" fill="none" xmlns="http://www.w3.org/2000/svg">
  <g>
    <path d="M38 0C44.6283 0 50 5.37168 50 12C50 12 50 33 50 33C50 39.6283 44.6283 45 38 45C38 45 12 45 12 45C5.37168 45 0 39.6283 0 33C0 33 0 12 0 12C0 5.37168 5.37168 0 12 0C12 0 38 0 38 0Z" fill="#241B20" fill-rule="evenodd" />
    <path d="M0 0L16.3547 18L31 0" fill="none" stroke-width="7" stroke="#808080" stroke-linecap="round" stroke-linejoin="round" transform="matrix(-1 0 -0 -1 40 32)" />
  </g>
</svg>