<?xml version="1.0" encoding="utf-8"?>
<svg width="47.727" height="45" viewBox="0 0 47.727 45" fill="none" xmlns="http://www.w3.org/2000/svg">
  <g transform="matrix(1 0 0 -1 0 45)">
    <path d="M35.7273 0C42.3556 0 47.7273 5.37168 47.7273 12L47.7273 33C47.7273 39.6283 42.3556 45 35.7273 45L12 45C5.37168 45 0 39.6283 0 33L0 12C0 5.37168 5.37168 0 12 0L35.7273 0Z" fill="#241B20" />
    <g transform="matrix(1 -0 0 1 8.591 15)">
      <path d="M0 0L15.3629 18.0001L30.0001 -9.53674e-07" />
      <path d="M7.88821 1.90735e-06L4.56377 -3.89512Q4.46815 -4.00716 4.36715 -4.11436Q4.26615 -4.22157 4.16001 -4.32369Q4.05386 -4.42582 3.94284 -4.52261Q3.83182 -4.6194 3.71618 -4.71063Q3.60054 -4.80185 3.48056 -4.8873Q3.36059 -4.97274 3.23656 -5.05219Q3.11254 -5.13165 2.98476 -5.20492Q2.85699 -5.27819 2.72577 -5.3451Q2.59456 -5.41202 2.46022 -5.47241Q2.32588 -5.53281 2.18874 -5.58654Q2.0516 -5.64027 1.91198 -5.6872Q1.77237 -5.73414 1.63062 -5.77417Q1.48887 -5.8142 1.34533 -5.84723Q1.20179 -5.88025 1.0568 -5.9062Q0.911812 -5.93214 0.765725 -5.95094Q0.619638 -5.96973 0.472804 -5.98134Q0.32597 -5.99295 0.178744 -5.99733Q0.0315177 -6.00172 -0.115747 -5.99888Q-0.263011 -5.99604 -0.409958 -5.98598Q-0.556906 -5.97591 -0.703183 -5.95865Q-0.849459 -5.94139 -0.994713 -5.91697Q-1.13997 -5.89255 -1.28385 -5.86103Q-1.42773 -5.82952 -1.56989 -5.79098Q-1.71205 -5.75244 -1.85215 -5.70697Q-1.99224 -5.6615 -2.12994 -5.60922Q-2.26764 -5.55693 -2.40261 -5.49795Q-2.53758 -5.43897 -2.66949 -5.37344Q-2.8014 -5.3079 -2.92993 -5.23598Q-3.05847 -5.16405 -3.18332 -5.08591Q-3.30817 -5.00776 -3.42904 -4.92358Q-3.54991 -4.8394 -3.6665 -4.7494Q-3.78309 -4.65939 -3.89512 -4.56377Q-4.11933 -4.37241 -4.3237 -4.16Q-4.52806 -3.94759 -4.71063 -3.71618Q-4.89319 -3.48476 -5.05219 -3.23656Q-5.2112 -2.98836 -5.34511 -2.72577Q-5.47901 -2.46318 -5.58654 -2.18874Q-5.69407 -1.91429 -5.77417 -1.63062Q-5.85428 -1.34695 -5.9062 -1.0568Q-5.95812 -0.766647 -5.98134 -0.472802Q-6.00457 -0.178958 -5.99888 0.115749Q-5.9932 0.410455 -5.95865 0.703185Q-5.92411 0.995915 -5.86104 1.28385Q-5.79796 1.57178 -5.70697 1.85215Q-5.61598 2.13251 -5.49795 2.40261Q-5.37992 2.67271 -5.23598 2.92994Q-5.09204 3.18716 -4.92358 3.42904Q-4.75513 3.67092 -4.56377 3.89513L10.7991 21.8952Q10.8947 22.0072 10.9957 22.1144Q11.0967 22.2217 11.2028 22.3238Q11.309 22.4259 11.42 22.5227Q11.531 22.6195 11.6467 22.7107Q11.7623 22.8019 11.8823 22.8874Q12.0023 22.9728 12.1263 23.0523Q12.2503 23.1317 12.3781 23.205Q12.5059 23.2783 12.6371 23.3452Q12.7683 23.4121 12.9026 23.4725Q13.037 23.5329 13.1741 23.5866Q13.3113 23.6403 13.4509 23.6873Q13.5905 23.7342 13.7322 23.7742Q13.874 23.8143 14.0175 23.8473Q14.1611 23.8803 14.3061 23.9063Q14.451 23.9322 14.5971 23.951Q14.7432 23.9698 14.89 23.9814Q15.0369 23.993 15.1841 23.9974Q15.3313 24.0018 15.4786 23.999Q15.6259 23.9961 15.7728 23.9861Q15.9198 23.976 16.066 23.9587Q16.2123 23.9415 16.3576 23.917Q16.5028 23.8926 16.6467 23.8611Q16.7906 23.8296 16.9327 23.7911Q17.0749 23.7525 17.215 23.7071Q17.3551 23.6616 17.4928 23.6093Q17.6305 23.557 17.7655 23.498Q17.9004 23.439 18.0323 23.3735Q18.1642 23.308 18.2928 23.2361Q18.4213 23.1641 18.5462 23.086Q18.671 23.0078 18.7919 22.9237Q18.9128 22.8395 19.0294 22.7495Q19.1459 22.6595 19.258 22.5638Q19.6734 22.2093 20.018 21.7855L34.6553 3.78546Q34.8412 3.55677 35.0039 3.31095Q35.1665 3.06513 35.3043 2.80455Q35.4421 2.54397 35.5537 2.27114Q35.6652 1.99831 35.7495 1.71586Q35.8338 1.43341 35.89 1.14406Q35.9463 0.854705 35.9738 0.561237Q36.0014 0.267768 36.0001 -0.0269906Q35.9987 -0.321749 35.9685 -0.614958Q35.9383 -0.908166 35.8795 -1.197Q35.8207 -1.48584 35.7339 -1.76752Q35.647 -2.0492 35.533 -2.32101Q35.419 -2.59283 35.2789 -2.85215Q35.1388 -3.11148 34.9739 -3.35583Q34.809 -3.60017 34.621 -3.82718Q34.433 -4.05419 34.2236 -4.26168Q34.0143 -4.46917 33.7856 -4.65514Q33.5569 -4.8411 33.3111 -5.00376Q33.0653 -5.16642 32.8047 -5.3042Q32.5441 -5.44197 32.2713 -5.55355Q31.9984 -5.66512 31.716 -5.74942Q31.4335 -5.83371 31.1442 -5.88992Q30.8548 -5.94612 30.5614 -5.97369Q30.2679 -6.00127 29.9731 -5.99994Q29.6784 -5.99861 29.3852 -5.9684Q29.092 -5.93819 28.8031 -5.87939Q28.5143 -5.82058 28.2326 -5.73375Q27.9509 -5.64691 27.6791 -5.53289Q27.4073 -5.41887 27.148 -5.27875Q26.8886 -5.13863 26.6443 -4.97377Q26.4 -4.80891 26.1729 -4.62089Q25.9459 -4.43287 25.7384 -4.22351Q25.531 -4.01415 25.345 -3.78546L22.2667 9.53674e-07L30.0001 9.53674e-07L19.2116 13.2671L15.3629 18.0001L11.4026 13.36L0 1.90735e-06L7.88821 1.90735e-06Z" fill="#808080" fill-rule="evenodd" />
    </g>
  </g>
</svg>